#N canvas 0 50 450 529 12;
#X obj 41 24 tgl 15 0 empty empty empty 17 7 0 10 -262144 -1 -1 0 1
;
#X obj 41 50 metro 1000;
#X obj 41 76 random 2000;
#X obj 41 102 + 3000;
#X msg 41 180 1 \, 0 \$1;
#X obj 41 206 vline~;
#X obj 39 425 *~;
#X obj 41 128 t f f b;
#X obj 42 303 lop~ 100;
#X obj 215 421 *~;
#X obj 167 44 noise~;
#X obj 173 220 bp~ 10000 10;
#X obj 183 132 phasor~ -10;
#X obj 173 246 *~;
#X obj 183 79 random 100;
#X obj 183 105 * -1;
#X obj 183 159 lop~ 100;
#X obj 41 254 *~;
#X obj 184 189 *~;
#N canvas 0 50 450 300 pan 0;
#X obj 18 104 cos~;
#X obj 18 203 outlet~;
#X obj 80 203 outlet~;
#X obj 80 145 -~ 1;
#X obj 80 167 *~ -1;
#X obj 18 50 *~ 0.25;
#X obj 18 13 inlet~;
#X connect 0 0 1 0;
#X connect 0 0 3 0;
#X connect 3 0 4 0;
#X connect 4 0 2 0;
#X connect 5 0 0 0;
#X connect 6 0 5 0;
#X restore 202 343 pd pan;
#X obj 42 329 *~;
#X obj 37 491 outlet~;
#X obj 213 487 outlet~;
#X obj 76 11 inlet;
#X obj 173 275 *~ 0.05;
#X obj 38 458 *~ 1.5;
#X obj 214 454 *~ 1.5;
#X connect 0 0 1 0;
#X connect 1 0 2 0;
#X connect 2 0 3 0;
#X connect 3 0 7 0;
#X connect 4 0 5 0;
#X connect 5 0 17 0;
#X connect 5 0 17 1;
#X connect 5 0 19 0;
#X connect 6 0 25 0;
#X connect 7 0 4 0;
#X connect 7 1 1 1;
#X connect 7 2 14 0;
#X connect 8 0 20 0;
#X connect 9 0 26 0;
#X connect 10 0 11 0;
#X connect 11 0 13 0;
#X connect 12 0 16 0;
#X connect 13 0 24 0;
#X connect 14 0 15 0;
#X connect 15 0 12 0;
#X connect 16 0 18 0;
#X connect 16 0 18 1;
#X connect 17 0 8 0;
#X connect 18 0 13 1;
#X connect 19 0 6 1;
#X connect 19 1 9 1;
#X connect 20 0 6 0;
#X connect 20 0 9 0;
#X connect 23 0 1 0;
#X connect 24 0 20 1;
#X connect 25 0 21 0;
#X connect 26 0 22 0;
