#N canvas 0 23 542 354 10;
#X obj 41 48 inlet;
#X obj 206 45 inlet;
#X obj 283 47 inlet;
#X obj 349 48 inlet;
#X obj 232 304 outlet;
#X text 37 25 select;
#X text 211 20 red;
#X text 281 22 green;
#X text 353 22 blue;
#X obj 349 94 t b f;
#X obj 283 152 +;
#X obj 283 177 t b f;
#X obj 283 208 +;
#X obj 232 280 f;
#X obj 206 71 * -65536;
#X obj 283 72 * -256;
#X obj 349 72 * -1;
#X obj 283 239 - 1;
#X obj 180 160 t b b;
#X connect 0 0 18 0;
#X connect 1 0 14 0;
#X connect 2 0 15 0;
#X connect 3 0 16 0;
#X connect 9 0 10 0;
#X connect 9 1 10 1;
#X connect 10 0 11 0;
#X connect 11 0 12 0;
#X connect 11 1 12 1;
#X connect 12 0 17 0;
#X connect 13 0 4 0;
#X connect 14 0 12 0;
#X connect 15 0 10 0;
#X connect 16 0 9 0;
#X connect 17 0 13 1;
#X connect 18 0 13 0;
#X connect 18 1 17 0;
