#N canvas 441 267 950 719 10;
#X obj 45 138 t a a;
#X obj 45 159 route gem_state;
#X obj 45 180 route float;
#X obj 108 214 t b;
#X obj 108 256 t f b;
#X obj 108 277 until;
#X obj 108 321 f;
#X obj 140 323 + 1;
#X msg 127 297 0;
#X obj 108 400 gemlist;
#X obj 108 421 separator;
#X obj 108 667 curve 2;
#X obj 364 564 tabread plotDataX;
#X obj 414 584 tabread plotDataY;
#X obj 45 38 gemhead 200;
#X obj 108 442 alpha;
#X obj 184 564 tabread plotDataX;
#X obj 234 584 tabread plotDataY;
#N canvas 451 153 278 286 set-color 0;
#X obj 47 59 f \$1;
#X obj 47 239 outlet;
#X obj 24 58 bng 15 250 50 0 empty empty empty 17 7 0 10 -262144 -1
-1;
#X msg 137 161 1 1 0;
#X msg 107 141 0 0 1;
#X msg 77 121 0 1 0;
#X msg 47 101 1 0 0;
#X obj 47 38 inlet;
#X obj 47 80 select 0 1 2 3 4;
#X msg 167 181 0.611765 0 1;
#X connect 0 0 8 0;
#X connect 2 0 0 0;
#X connect 3 0 1 0;
#X connect 4 0 1 0;
#X connect 5 0 1 0;
#X connect 6 0 1 0;
#X connect 7 0 0 0;
#X connect 8 0 6 0;
#X connect 8 1 5 0;
#X connect 8 2 4 0;
#X connect 8 3 3 0;
#X connect 8 4 9 0;
#X connect 9 0 1 0;
#X restore 242 349 pd set-color;
#X obj 108 467 color;
#X obj 108 235 f;
#X obj 156 214 r sequence-\$1-length;
#X obj 156 235 - 1;
#X obj 364 502 tabread sequence-table-\$1;
#X obj 108 369 t b f f;
#X obj 184 503 tabread sequence-table-\$1;
#X obj 364 472 + 1;
#X obj 45 109 rotateXYZ;
#X obj 124 92 r rotate-x;
#X obj 204 92 r rotate-y;
#X obj 284 92 r rotate-z;
#X obj 45 84 ortho;
#X obj 185 58 r ortho-switch;
#X msg 180 37 compat 0;
#X obj 180 17 r lb1;
#X obj 184 645 pack f f f;
#X obj 364 645 pack f f f;
#X obj 184 533 t f f f;
#X obj 364 532 t f f f;
#X obj 274 604 tabread plotDataZ;
#X obj 454 604 tabread plotDataZ;
#X obj 341 289 r grain-connect-alpha;
#X obj 341 370 t b f;
#X obj 242 391 list append;
#X obj 491 385 r grain-connect-style;
#X obj 607 471 select 0 1;
#X msg 607 492 draw line;
#X msg 627 513 draw point;
#X obj 764 67 r grain-connect-width;
#X msg 764 88 width \$1;
#X obj 364 322 loadbang;
#X msg 364 343 0.6;
#X floatatom 62 267 5 0 0 0 - - -;
#X msg 753 617 res \$1;
#X obj 612 572 r grain-connect-res;
#X obj 687 230 r sequence-select;
#X obj 687 251 select \$1;
#X obj 753 279 t b;
#X msg 719 332 0;
#X msg 687 332 1;
#X obj 772 327 r grain-connect-res;
#X obj 753 355 f;
#X obj 787 509 f;
#X obj 866 504 + 1;
#X obj 787 557 + 10;
#X obj 866 525 % 60;
#X obj 787 530 moses 30;
#X obj 832 575 -;
#X obj 832 554 swap 60;
#X obj 787 488 metro 20;
#X obj 66 603 r seq-\$1-curve;
#X obj 764 111 s seq-\$1-curve;
#X obj 607 541 s seq-\$1-curve;
#X obj 753 641 s seq-\$1-curve;
#X connect 0 0 1 0;
#X connect 0 1 9 1;
#X connect 1 0 2 0;
#X connect 2 1 3 0;
#X connect 3 0 20 0;
#X connect 4 0 5 0;
#X connect 4 1 8 0;
#X connect 5 0 6 0;
#X connect 6 0 7 0;
#X connect 6 0 24 0;
#X connect 7 0 6 1;
#X connect 8 0 6 1;
#X connect 9 0 10 0;
#X connect 10 0 15 0;
#X connect 12 0 36 0;
#X connect 13 0 36 1;
#X connect 14 0 31 0;
#X connect 15 0 19 0;
#X connect 16 0 35 0;
#X connect 17 0 35 1;
#X connect 18 0 43 0;
#X connect 19 0 11 0;
#X connect 20 0 4 0;
#X connect 20 0 52 0;
#X connect 21 0 22 0;
#X connect 22 0 20 1;
#X connect 23 0 38 0;
#X connect 24 0 9 0;
#X connect 24 1 25 0;
#X connect 24 2 26 0;
#X connect 25 0 37 0;
#X connect 26 0 23 0;
#X connect 27 0 0 0;
#X connect 28 0 27 1;
#X connect 29 0 27 2;
#X connect 30 0 27 3;
#X connect 31 0 27 0;
#X connect 32 0 31 0;
#X connect 33 0 31 0;
#X connect 34 0 33 0;
#X connect 35 0 11 1;
#X connect 36 0 11 2;
#X connect 37 0 16 0;
#X connect 37 1 17 0;
#X connect 37 2 39 0;
#X connect 38 0 12 0;
#X connect 38 1 13 0;
#X connect 38 2 40 0;
#X connect 39 0 35 2;
#X connect 40 0 36 2;
#X connect 41 0 42 0;
#X connect 42 0 18 0;
#X connect 42 1 43 1;
#X connect 43 0 19 1;
#X connect 44 0 45 0;
#X connect 45 0 46 0;
#X connect 45 1 47 0;
#X connect 46 0 72 0;
#X connect 47 0 72 0;
#X connect 48 0 49 0;
#X connect 49 0 71 0;
#X connect 50 0 51 0;
#X connect 51 0 42 0;
#X connect 53 0 73 0;
#X connect 54 0 53 0;
#X connect 55 0 56 0;
#X connect 56 0 59 0;
#X connect 56 1 57 0;
#X connect 57 0 58 0;
#X connect 57 0 61 0;
#X connect 58 0 45 0;
#X connect 58 0 69 0;
#X connect 59 0 45 0;
#X connect 59 0 69 0;
#X connect 60 0 61 1;
#X connect 61 0 53 0;
#X connect 62 0 63 0;
#X connect 62 0 66 0;
#X connect 63 0 65 0;
#X connect 64 0 53 0;
#X connect 65 0 62 1;
#X connect 66 0 64 0;
#X connect 66 1 68 0;
#X connect 67 0 64 0;
#X connect 68 0 67 0;
#X connect 68 1 67 1;
#X connect 69 0 62 0;
#X connect 70 0 11 0;
