#N canvas 267 331 344 332 10;
#X floatatom 59 224 10 0 0 2 #1 - -;
#X obj 59 120 f \$2;
#X msg 59 141 get \$1 1;
#X obj 59 162 list store;
#X obj 140 162 r raw-feature;
#X obj 59 18 r trig-sound;
#X obj 59 39 t b;
#X connect 1 0 2 0;
#X connect 2 0 3 0;
#X connect 3 0 0 0;
#X connect 4 0 3 1;
#X connect 5 0 6 0;
#X connect 6 0 1 0;
#X coords 0 -1 1 1 100 50 2 50 200;
