#N canvas 574 52 438 267 10;
#X declare -path ../../lib;
#X declare -lib timbreIDLib;
#N canvas 942 539 450 300 players 0;
#N canvas 78 106 1187 619 set-sample-and-grain 0;
#X obj 150 438 tabread frame-locations;
#X obj 276 32 r trig-sound;
#X obj 58 518 outlet;
#X obj 256 376 s current-playback-frame;
#X obj 120 418 tabread frame-start-samp;
#X obj 432 32 r seq-0-trig-sound;
#X obj 432 53 t f b b;
#X obj 491 174 r seq-0-gain;
#X obj 471 195 f;
#X obj 572 53 t f b b;
#X obj 611 195 f;
#X obj 722 53 t f b b;
#X obj 761 195 f;
#X obj 862 53 t f b b;
#X obj 901 195 f;
#X obj 572 32 r seq-1-trig-sound;
#X obj 722 32 r seq-2-trig-sound;
#X obj 862 32 r seq-3-trig-sound;
#X obj 921 174 r seq-3-gain;
#X obj 781 175 r seq-2-gain;
#X obj 632 174 r seq-1-gain;
#X obj 611 282 moses 41;
#X obj 611 303 t b;
#X msg 611 324 0;
#X obj 611 345 f;
#X obj 1012 53 t f b b;
#X obj 1021 195 f;
#X obj 1012 32 r seq-4-trig-sound;
#X obj 1041 174 r seq-4-gain;
#X obj 341 195 f;
#X obj 361 174 r mouse-gain;
#X obj 320 402 tabread frame-locations;
#X obj 320 425 s current-playback-sample;
#X obj 276 54 t f f f b b;
#X text 422 367 Only look up grain-info if it's a mouseover, f 23
;
#X obj 782 526 -;
#X obj 782 547 + 1;
#X obj 718 485 random;
#X obj 820 527 t b f;
#X obj 820 486 r grain-transpo-min;
#X obj 782 465 r grain-transpo-max;
#X obj 718 506 +;
#X obj 820 507 * 100;
#X obj 782 486 * 100;
#X obj 718 527 / 100;
#X obj 58 289 poly 256 1;
#X obj 58 350 spigot;
#X obj 135 318 t f f;
#X obj 102 226 r grainOff;
#X msg 102 247 \$1 0;
#X obj 58 196 f;
#X obj 120 376 t f f f;
#X obj 58 488 pack f f f f f f;
#X obj 58 310 - 1;
#X connect 0 0 52 2;
#X connect 1 0 33 0;
#X connect 4 0 52 1;
#X connect 5 0 6 0;
#X connect 6 0 50 0;
#X connect 6 1 8 0;
#X connect 6 2 37 0;
#X connect 7 0 8 1;
#X connect 8 0 21 0;
#X connect 9 0 50 0;
#X connect 9 1 10 0;
#X connect 9 2 37 0;
#X connect 10 0 21 0;
#X connect 11 0 50 0;
#X connect 11 1 12 0;
#X connect 11 2 37 0;
#X connect 12 0 21 0;
#X connect 13 0 50 0;
#X connect 13 1 14 0;
#X connect 13 2 37 0;
#X connect 14 0 21 0;
#X connect 15 0 9 0;
#X connect 16 0 11 0;
#X connect 17 0 13 0;
#X connect 18 0 14 1;
#X connect 19 0 12 1;
#X connect 20 0 10 1;
#X connect 21 0 22 0;
#X connect 21 1 24 0;
#X connect 22 0 23 0;
#X connect 23 0 24 0;
#X connect 24 0 45 1;
#X connect 25 0 50 0;
#X connect 25 1 26 0;
#X connect 25 2 37 0;
#X connect 26 0 21 0;
#X connect 27 0 25 0;
#X connect 28 0 26 1;
#X connect 29 0 21 0;
#X connect 30 0 29 1;
#X connect 31 0 32 0;
#X connect 33 0 50 0;
#X connect 33 1 3 0;
#X connect 33 2 31 0;
#X connect 33 3 29 0;
#X connect 33 4 37 0;
#X connect 35 0 36 0;
#X connect 36 0 37 1;
#X connect 37 0 41 0;
#X connect 38 0 35 0;
#X connect 38 1 35 1;
#X connect 38 1 41 1;
#X connect 39 0 42 0;
#X connect 40 0 43 0;
#X connect 41 0 44 0;
#X connect 42 0 38 0;
#X connect 43 0 35 0;
#X connect 44 0 52 4;
#X connect 45 0 53 0;
#X connect 45 1 51 0;
#X connect 45 2 47 0;
#X connect 46 0 52 0;
#X connect 47 0 46 1;
#X connect 47 1 52 3;
#X connect 48 0 49 0;
#X connect 49 0 45 0;
#X connect 50 0 45 0;
#X connect 51 0 4 0;
#X connect 51 1 0 0;
#X connect 51 2 52 5;
#X connect 52 0 2 0;
#X connect 53 0 46 0;
#X restore 72 57 pd set-sample-and-grain;
#X obj 177 159 clone grain-player-unit 256;
#X msg 72 93 \; play-\$1 \$2 \$3 \$4 \$5 \$6 \;;
#X connect 0 0 2 0;
#X restore 48 99 pd players;
#N canvas 829 491 756 311 timbreID 0;
#X obj 82 85 r \$0-tID;
#X obj 82 152 timbreID;
#X floatatom 82 174 5 0 0 0 - - -;
#X obj 127 221 s feature-list;
#X obj 127 191 route feature_list;
#X msg 216 95 print;
#X msg 377 121 read \$1;
#X obj 377 182 s \$0-tID;
#X obj 377 64 bng 15 250 50 0 empty empty empty 17 7 0 10 -262144 -1
-1;
#X obj 377 84 openpanel;
#X connect 0 0 1 0;
#X connect 1 0 2 0;
#X connect 1 3 4 0;
#X connect 4 0 3 0;
#X connect 5 0 1 0;
#X connect 6 0 7 0;
#X connect 8 0 9 0;
#X connect 9 0 6 0;
#X restore 48 79 pd timbreID;
#N canvas 470 177 598 582 init 0;
#X obj 43 34 loadbang;
#X msg 43 344 \; pd dsp 1 \;;
#X obj 244 115 s lb1;
#X obj 226 141 s lb2;
#X obj 208 170 s lb3;
#X obj 43 55 t b b b b b b;
#X obj 188 200 s lb4;
#X obj 168 230 s lb5;
#X obj 253 251 r lb5;
#X obj 253 374 r full-sample-mode;
#X obj 253 396 select 0 1;
#X text 382 403 rectangular windowing if in full sample mode \, blackman
windowing otherwise, f 30;
#X msg 293 465 \; window-function 0 \;;
#X obj 325 129 declare -path ../../lib;
#X msg 253 515 \; window-function 1 \;;
#X floatatom 55 460 15 0 0 0 - - -;
#X obj 55 439 r max-sample-length;
#X msg 253 281 \; samplerate 44100 \; num-player-voices 256 \; audio-process-loadbang
bang \;;
#X obj 325 149 declare -lib timbreIDLib;
#X connect 0 0 5 0;
#X connect 5 0 1 0;
#X connect 5 1 7 0;
#X connect 5 2 6 0;
#X connect 5 3 4 0;
#X connect 5 4 3 0;
#X connect 5 5 2 0;
#X connect 8 0 17 0;
#X connect 9 0 10 0;
#X connect 10 0 14 0;
#X connect 10 1 12 0;
#X connect 16 0 15 0;
#X restore 48 29 pd init;
#N canvas 1143 164 512 273 analysis 1;
#N canvas 462 283 688 580 analysis 0;
#X obj 347 296 s \$0-tID;
#X obj 58 477 outlet;
#X obj 135 48 inlet;
#X text 289 108 First \, clear timbreID's memory and reset the instance
counter;
#X obj 221 301 list length;
#X obj 206 326 f;
#N canvas 484 23 685 744 prep-analysis-message 0;
#X obj 83 17 inlet;
#X obj 102 197 f;
#X obj 142 197 + 1;
#X msg 173 167 0;
#X obj 102 327 until;
#X obj 102 384 f;
#X obj 102 143 until;
#X obj 104 39 r num-samples;
#X obj 83 66 f;
#X msg 102 524 analyze \$1 \$2;
#X obj 102 497 pack f f;
#X obj 102 220 t f f;
#X obj 219 460 r window-size;
#X obj 215 312 s current-analysis-sample;
#X obj 119 631 outlet;
#X obj 102 257 tabread sample-frames;
#X obj 142 384 + 1;
#X obj 102 426 tabread frame-start-samp;
#X obj 83 103 t b f b;
#X obj 32 546 outlet;
#X obj 369 490 r full-sample-mode;
#X obj 369 522 swap 1;
#X obj 369 544 -;
#X obj 102 546 spigot;
#X obj 102 406 t f b;
#X obj 242 546 spigot;
#X obj 327 596 r current-analysis-sample;
#X obj 307 625 f;
#X obj 307 646 tabread sample-lengths;
#X obj 307 674 s window-size;
#X obj 242 567 t b b;
#X obj 441 336 r window-size;
#N canvas 1171 386 340 440 find-nearest-power-of-two 0;
#X obj 37 37 inlet;
#X obj 57 367 s window-size-powTwo;
#X obj 37 79 until;
#X obj 37 100 f;
#X obj 97 101 - 1;
#X obj 37 58 t f f;
#X obj 59 165 - 1;
#X obj 37 273 select 0;
#X obj 37 121 t f f f, f 12;
#X obj 37 334 f;
#X obj 37 405 outlet;
#X obj 37 202 &;
#X obj 37 294 t b b, f 14;
#X connect 0 0 5 0;
#X connect 2 0 3 0;
#X connect 3 0 4 0;
#X connect 3 0 8 0;
#X connect 4 0 3 1;
#X connect 5 0 2 0;
#X connect 5 1 3 1;
#X connect 6 0 11 1;
#X connect 7 0 12 0;
#X connect 8 0 11 0;
#X connect 8 1 6 0;
#X connect 8 2 9 1;
#X connect 9 0 1 0;
#X connect 9 0 10 0;
#X connect 11 0 7 0;
#X connect 12 0 9 0;
#X connect 12 1 2 1;
#X restore 441 357 pd find-nearest-power-of-two;
#X floatatom 441 378 5 0 0 0 - - -;
#X obj 406 162 r current-analysis-sample;
#X obj 406 223 s samplerate;
#X obj 406 195 tabread samplerates;
#X connect 0 0 8 0;
#X connect 1 0 2 0;
#X connect 1 0 11 0;
#X connect 2 0 1 1;
#X connect 3 0 1 1;
#X connect 3 0 5 1;
#X connect 4 0 5 0;
#X connect 5 0 16 0;
#X connect 5 0 24 0;
#X connect 6 0 1 0;
#X connect 7 0 8 1;
#X connect 8 0 18 0;
#X connect 9 0 23 0;
#X connect 10 0 9 0;
#X connect 11 0 15 0;
#X connect 11 1 13 0;
#X connect 12 0 10 1;
#X connect 15 0 4 0;
#X connect 16 0 5 1;
#X connect 17 0 10 0;
#X connect 18 0 19 0;
#X connect 18 1 6 0;
#X connect 18 2 3 0;
#X connect 20 0 25 1;
#X connect 20 0 21 0;
#X connect 21 0 22 0;
#X connect 21 1 22 1;
#X connect 22 0 23 1;
#X connect 23 0 14 0;
#X connect 24 0 17 0;
#X connect 24 1 25 0;
#X connect 25 0 30 0;
#X connect 26 0 27 1;
#X connect 27 0 28 0;
#X connect 28 0 29 0;
#X connect 30 0 14 0;
#X connect 30 1 27 0;
#X connect 31 0 32 0;
#X connect 32 0 33 0;
#X connect 34 0 36 0;
#X connect 36 0 35 0;
#X restore 206 222 pd prep-analysis-message;
#X obj 232 182 s \$0-tID;
#X msg 232 161 clear;
#X obj 289 144 s reset-instance-count;
#N canvas 671 57 1038 497 multiple-analyses 0;
#X obj 56 38 inlet;
#X obj 43 440 outlet;
#X text 501 106 0: sample number;
#X text 501 66 Feature attribute index:;
#X obj 56 59 t a a a a a a a a;
#X text 501 166 3: bark brightness;
#X text 501 186 4: bark centroid;
#X text 501 206 5: bark flatness;
#X text 501 226 6: bark flux;
#X text 501 246 7: bark irregularity;
#X text 501 266 8: bark kurtosis;
#X text 501 286 9: bark rolloff;
#X text 501 306 10: bark skewness;
#X text 501 326 11: bark spectrum slope;
#X text 501 346 12: bark spread;
#X text 501 366 13: brightness;
#X text 501 386 14: centroid;
#X text 711 106 15: flatness;
#X text 711 126 16: flux;
#X text 711 146 17: harmonicity;
#X text 711 166 18: inharmonicity;
#X text 711 186 19: irregularity;
#X text 711 206 20: kurtosis;
#X text 711 226 21: rolloff;
#X text 711 246 22: skewness;
#X text 711 266 23: slope;
#X text 711 286 24: spread;
#X text 711 306 25: wave slope;
#X text 711 326 26: zero crossing;
#N canvas 107 220 967 629 feature-0-3 0;
#X obj 201 56 inlet;
#X obj 189 560 outlet;
#X obj 491 315 list append;
#X obj 189 459 list append;
#X obj 223 295 f;
#X obj 253 295 + 1;
#X msg 248 270 0;
#X obj 248 248 r reset-instance-count;
#X obj 491 80 r samplerate;
#X msg 491 101 samplerate \$1;
#X obj 591 80 r current-analysis-sample;
#X msg 591 101 set tID-sample-\$1;
#X obj 320 365 list append;
#X obj 84 402 f;
#X obj 99 379 r current-analysis-sample;
#X obj 583 247 inlet;
#X obj 491 154 barkSpecBrightness tID-sample--1;
#X obj 753 80 r window-function;
#X msg 753 102 window_function \$1;
#X obj 311 45 list;
#X obj 311 90 list trim;
#X obj 351 45 r \$0-barkSpecData;
#X obj 538 16 r window-size;
#X msg 538 38 window \$1;
#X obj 335 300 r window-size;
#X obj 305 414 list append;
#X obj 320 326 f;
#X obj 201 106 t b b b b;
#X obj 311 67 list prepend chain_barkSpec;
#X connect 0 0 27 0;
#X connect 2 0 12 1;
#X connect 3 0 1 0;
#X connect 4 0 5 0;
#X connect 4 0 25 0;
#X connect 5 0 4 1;
#X connect 6 0 4 1;
#X connect 7 0 6 0;
#X connect 8 0 9 0;
#X connect 9 0 16 0;
#X connect 10 0 11 0;
#X connect 11 0 16 0;
#X connect 12 0 25 1;
#X connect 13 0 3 0;
#X connect 14 0 13 1;
#X connect 15 0 2 1;
#X connect 16 0 2 0;
#X connect 17 0 18 0;
#X connect 18 0 16 0;
#X connect 19 0 28 0;
#X connect 20 0 16 0;
#X connect 21 0 19 1;
#X connect 22 0 23 0;
#X connect 23 0 16 0;
#X connect 24 0 26 1;
#X connect 25 0 3 1;
#X connect 26 0 12 0;
#X connect 27 0 13 0;
#X connect 27 1 4 0;
#X connect 27 2 26 0;
#X connect 27 3 19 0;
#X connect 28 0 20 0;
#X restore 43 403 pd feature-0-3;
#N canvas 230 39 1168 637 features-4-7 0;
#X obj 232 52 inlet;
#X obj 644 329 list append;
#X obj 46 429 list append;
#X obj 412 537 list append;
#X obj 820 156 r samplerate;
#X msg 820 177 samplerate \$1;
#X obj 240 389 list append;
#X obj 870 204 r current-analysis-sample;
#X msg 870 225 set tID-sample-\$1;
#X obj 46 451 outlet;
#X obj 707 299 inlet;
#X obj 46 268 barkSpecCentroid tID-sample--1;
#X obj 240 268 barkSpecFlatness tID-sample--1;
#X obj 584 268 barkSpecIrregularity tID-sample--1;
#X obj 790 94 r window-function;
#X msg 790 116 window_function \$1;
#X obj 232 112 list;
#X obj 46 219 list trim;
#X obj 240 221 list trim;
#X obj 584 188 list trim;
#X obj 584 130 list;
#X obj 624 130 r \$0-barkSpecData;
#X obj 921 254 r window-size;
#X msg 921 276 window \$1;
#X obj 412 466 barkSpecFlux tID-sample--1 0.5 256;
#X text 430 491 NORMALIZATION DEFAULT: OFF;
#X obj 232 82 t b b b, f 16;
#X obj 272 112 r \$0-barkSpecData;
#X obj 584 167 list prepend chain_barkSpec;
#X obj 240 191 list prepend chain_barkSpec;
#X obj 46 191 list prepend chain_barkSpec;
#X obj 232 133 t l l b;
#N canvas 846 246 619 510 prep-flux-data 0;
#X obj 77 41 inlet;
#X obj 337 41 inlet;
#X obj 77 391 outlet;
#X obj 337 391 outlet;
#X obj 140 215 list;
#X obj 77 297 list trim;
#X obj 77 242 list append;
#X obj 180 215 r \$0-barkSpecDataRear;
#X obj 77 271 list prepend chain_barkSpec;
#X obj 435 71 r full-sample-mode;
#X obj 435 93 swap 1;
#X obj 435 115 -;
#X obj 77 157 spigot;
#X obj 337 172 spigot;
#X msg 337 193 0;
#X obj 77 124 list;
#X obj 117 124 r \$0-barkSpecDataForward;
#X connect 0 0 15 0;
#X connect 1 0 13 0;
#X connect 1 0 4 0;
#X connect 4 0 6 1;
#X connect 5 0 2 0;
#X connect 6 0 8 0;
#X connect 7 0 4 1;
#X connect 8 0 5 0;
#X connect 9 0 10 0;
#X connect 9 0 13 1;
#X connect 10 0 11 0;
#X connect 10 1 11 1;
#X connect 11 0 12 1;
#X connect 12 0 6 0;
#X connect 13 0 14 0;
#X connect 14 0 3 0;
#X connect 15 0 12 0;
#X connect 16 0 15 1;
#X restore 412 342 pd prep-flux-data;
#X connect 0 0 26 0;
#X connect 1 0 3 1;
#X connect 2 0 9 0;
#X connect 3 0 6 1;
#X connect 4 0 5 0;
#X connect 5 0 11 0;
#X connect 5 0 13 0;
#X connect 5 0 24 0;
#X connect 5 0 12 0;
#X connect 6 0 2 1;
#X connect 7 0 8 0;
#X connect 8 0 11 0;
#X connect 8 0 12 0;
#X connect 8 0 13 0;
#X connect 8 0 24 0;
#X connect 10 0 1 1;
#X connect 11 0 2 0;
#X connect 12 0 6 0;
#X connect 13 0 1 0;
#X connect 14 0 15 0;
#X connect 15 0 13 0;
#X connect 15 0 12 0;
#X connect 15 0 11 0;
#X connect 15 0 24 0;
#X connect 16 0 31 0;
#X connect 17 0 11 0;
#X connect 18 0 12 0;
#X connect 19 0 13 0;
#X connect 20 0 28 0;
#X connect 21 0 20 1;
#X connect 22 0 23 0;
#X connect 23 0 13 0;
#X connect 23 0 12 0;
#X connect 23 0 11 0;
#X connect 23 0 24 0;
#X connect 24 0 3 0;
#X connect 26 0 16 0;
#X connect 26 1 32 1;
#X connect 26 2 20 0;
#X connect 27 0 16 1;
#X connect 28 0 19 0;
#X connect 29 0 18 0;
#X connect 30 0 17 0;
#X connect 31 0 30 0;
#X connect 31 1 29 0;
#X connect 31 2 32 0;
#X connect 32 0 24 0;
#X connect 32 1 3 0;
#X restore 89 345 pd features-4-7;
#N canvas 0 23 978 430 features-8-10 0;
#X obj 56 341 list append;
#X obj 56 363 outlet;
#X obj 101 19 inlet;
#X obj 531 278 inlet;
#X obj 246 301 list append;
#X obj 426 261 list append;
#X obj 646 202 r samplerate;
#X msg 646 223 samplerate \$1;
#X obj 756 202 r current-analysis-sample;
#X msg 756 223 set tID-sample-\$1;
#X obj 426 240 barkSpecSkewness tID-sample--1;
#X obj 246 240 barkSpecRolloff tID-sample--1;
#X obj 56 240 barkSpecKurtosis tID-sample--1;
#X obj 491 66 r window-function;
#X msg 491 88 window_function \$1;
#X obj 101 69 list;
#X obj 101 156 list trim;
#X obj 185 158 list trim;
#X obj 275 158 list trim;
#X obj 101 130 t l l l;
#X obj 141 69 r \$0-barkSpecData;
#X obj 101 39 t b;
#X obj 357 31 r window-size;
#X msg 357 53 window \$1;
#X obj 101 100 list prepend chain_barkSpec;
#X connect 0 0 1 0;
#X connect 2 0 21 0;
#X connect 3 0 5 1;
#X connect 4 0 0 1;
#X connect 5 0 4 1;
#X connect 6 0 7 0;
#X connect 7 0 10 0;
#X connect 7 0 11 0;
#X connect 7 0 12 0;
#X connect 8 0 9 0;
#X connect 9 0 10 0;
#X connect 9 0 11 0;
#X connect 9 0 12 0;
#X connect 10 0 5 0;
#X connect 11 0 4 0;
#X connect 12 0 0 0;
#X connect 13 0 14 0;
#X connect 14 0 10 0;
#X connect 14 0 11 0;
#X connect 14 0 12 0;
#X connect 15 0 24 0;
#X connect 16 0 12 0;
#X connect 17 0 11 0;
#X connect 18 0 10 0;
#X connect 19 0 16 0;
#X connect 19 1 17 0;
#X connect 19 2 18 0;
#X connect 20 0 15 1;
#X connect 21 0 15 0;
#X connect 22 0 23 0;
#X connect 23 0 10 0;
#X connect 23 0 11 0;
#X connect 23 0 12 0;
#X connect 24 0 19 0;
#X restore 150 304 pd features-8-10;
#N canvas 176 203 1159 470 features-11-14 0;
#X obj 46 18 inlet;
#X obj 644 263 list append;
#X obj 46 363 list append;
#X obj 400 293 list append;
#X obj 835 164 r samplerate;
#X msg 835 185 samplerate \$1;
#X obj 230 323 list append;
#X obj 935 164 r current-analysis-sample;
#X msg 935 185 set tID-sample-\$1;
#X obj 46 385 outlet;
#X obj 707 233 inlet;
#X obj 400 202 specBrightness tID-sample--1;
#X obj 644 202 specCentroid tID-sample--1;
#X obj 230 202 barkSpecSpread tID-sample--1;
#X obj 46 202 barkSpecSlope tID-sample--1;
#X obj 723 80 r window-function;
#X msg 723 102 window_function \$1;
#X obj 46 72 list;
#X obj 46 159 list trim;
#X obj 130 161 list trim;
#X obj 400 14 list;
#X obj 440 14 r \$0-magSpecData;
#X obj 400 101 list trim;
#X obj 484 103 list trim;
#X obj 46 133 t l l;
#X obj 400 75 t l l;
#X obj 46 48 t b b;
#X obj 86 72 r \$0-barkSpecData;
#X obj 263 49 r window-size;
#X msg 263 71 window \$1;
#X text 54 224 NORMALIZATION DEFAULT: ON;
#X obj 400 50 list prepend chain_magSpec;
#X obj 46 97 list prepend chain_barkSpec;
#X connect 0 0 26 0;
#X connect 1 0 3 1;
#X connect 2 0 9 0;
#X connect 3 0 6 1;
#X connect 4 0 5 0;
#X connect 5 0 11 0;
#X connect 5 0 12 0;
#X connect 5 0 14 0;
#X connect 6 0 2 1;
#X connect 7 0 8 0;
#X connect 8 0 11 0;
#X connect 8 0 12 0;
#X connect 8 0 13 0;
#X connect 8 0 14 0;
#X connect 10 0 1 1;
#X connect 11 0 3 0;
#X connect 12 0 1 0;
#X connect 13 0 6 0;
#X connect 14 0 2 0;
#X connect 15 0 16 0;
#X connect 16 0 12 0;
#X connect 16 0 11 0;
#X connect 16 0 13 0;
#X connect 16 0 14 0;
#X connect 17 0 32 0;
#X connect 18 0 14 0;
#X connect 19 0 13 0;
#X connect 20 0 31 0;
#X connect 21 0 20 1;
#X connect 22 0 11 0;
#X connect 23 0 12 0;
#X connect 24 0 18 0;
#X connect 24 1 19 0;
#X connect 25 0 22 0;
#X connect 25 1 23 0;
#X connect 26 0 17 0;
#X connect 26 1 20 0;
#X connect 27 0 17 1;
#X connect 28 0 29 0;
#X connect 29 0 14 0;
#X connect 29 0 13 0;
#X connect 29 0 11 0;
#X connect 29 0 12 0;
#X connect 31 0 25 0;
#X connect 32 0 24 0;
#X restore 200 244 pd features-11-14;
#N canvas 209 113 1039 627 features-15-18 0;
#X obj 46 38 inlet;
#X obj 563 448 list append;
#X obj 46 548 list append;
#X obj 429 478 list append;
#X obj 794 168 r samplerate;
#X msg 794 189 samplerate \$1;
#X obj 259 508 list append;
#X obj 809 216 r current-analysis-sample;
#X msg 809 237 set tID-sample-\$1;
#X obj 46 570 outlet;
#X obj 626 418 inlet;
#X obj 429 387 specHarmonicity tID-sample--1;
#X obj 46 387 specFlatness tID-sample--1;
#X obj 767 115 r window-function;
#X msg 767 137 window_function \$1;
#X obj 46 111 list;
#X obj 86 111 r \$0-magSpecData;
#X obj 46 308 list trim;
#X obj 429 189 list;
#X obj 469 189 r \$0-magSpecData;
#X obj 429 266 list trim;
#X obj 836 260 r window-size;
#X msg 836 282 window \$1;
#X obj 259 387 specFlux tID-sample--1 256;
#X text 272 413 NORMALIZATION DEFAULT: OFF;
#X obj 46 68 t b b b, f 24;
#X obj 46 285 list prepend chain_magSpec;
#X obj 429 242 list prepend chain_magSpec;
#X obj 46 202 t l b;
#N canvas 493 56 606 487 prep-flux-data 0;
#X obj 72 26 inlet;
#X obj 322 26 inlet;
#X obj 72 427 outlet;
#X obj 154 288 list;
#X obj 72 376 list trim;
#X obj 194 288 r \$0-magSpecDataRear;
#X obj 72 331 list append;
#X obj 72 354 list prepend chain_magSpec;
#X obj 415 104 r full-sample-mode;
#X obj 415 156 swap 1;
#X obj 415 178 -;
#X obj 72 137 spigot;
#X obj 282 350 spigot;
#X msg 282 371 0;
#X obj 72 103 list;
#X obj 112 103 r \$0-magSpecDataForward;
#X obj 282 427 outlet;
#X connect 0 0 14 0;
#X connect 1 0 3 0;
#X connect 1 0 12 0;
#X connect 3 0 6 1;
#X connect 4 0 2 0;
#X connect 5 0 3 1;
#X connect 6 0 7 0;
#X connect 7 0 4 0;
#X connect 8 0 9 0;
#X connect 8 0 12 1;
#X connect 9 0 10 0;
#X connect 9 1 10 1;
#X connect 10 0 11 1;
#X connect 11 0 6 0;
#X connect 12 0 13 0;
#X connect 13 0 16 0;
#X connect 14 0 11 0;
#X connect 15 0 14 1;
#X restore 258 256 pd prep-flux-data;
#X connect 0 0 25 0;
#X connect 1 0 3 1;
#X connect 2 0 9 0;
#X connect 3 0 6 1;
#X connect 4 0 5 0;
#X connect 5 0 11 0;
#X connect 5 0 12 0;
#X connect 5 0 23 0;
#X connect 6 0 2 1;
#X connect 7 0 8 0;
#X connect 8 0 11 0;
#X connect 8 0 12 0;
#X connect 8 0 23 0;
#X connect 10 0 1 1;
#X connect 11 0 3 0;
#X connect 11 1 1 0;
#X connect 12 0 2 0;
#X connect 13 0 14 0;
#X connect 14 0 11 0;
#X connect 14 0 12 0;
#X connect 14 0 23 0;
#X connect 15 0 28 0;
#X connect 16 0 15 1;
#X connect 17 0 12 0;
#X connect 18 0 27 0;
#X connect 19 0 18 1;
#X connect 20 0 11 0;
#X connect 21 0 22 0;
#X connect 22 0 12 0;
#X connect 22 0 11 0;
#X connect 22 0 23 0;
#X connect 23 0 6 0;
#X connect 25 0 15 0;
#X connect 25 1 29 1;
#X connect 25 2 18 0;
#X connect 26 0 17 0;
#X connect 27 0 20 0;
#X connect 28 0 26 0;
#X connect 28 1 29 0;
#X connect 29 0 23 0;
#X connect 29 1 6 0;
#X restore 230 204 pd features-15-18;
#N canvas 138 128 1159 470 features-19-22 0;
#X obj 46 19 inlet;
#X obj 644 263 list append;
#X obj 46 363 list append;
#X obj 400 293 list append;
#X obj 835 164 r samplerate;
#X msg 835 185 samplerate \$1;
#X obj 230 323 list append;
#X obj 935 164 r current-analysis-sample;
#X msg 935 185 set tID-sample-\$1;
#X obj 46 385 outlet;
#X obj 707 233 inlet;
#X obj 644 202 specSkewness tID-sample--1;
#X obj 400 202 specRolloff tID-sample--1;
#X obj 230 202 specKurtosis tID-sample--1;
#X obj 46 202 specIrregularity tID-sample--1;
#X obj 723 80 r window-function;
#X msg 723 102 window_function \$1;
#X obj 46 81 list;
#X obj 86 81 r \$0-magSpecData;
#X obj 46 158 list trim;
#X obj 130 160 list trim;
#X obj 46 132 t l l l l;
#X obj 220 160 list trim;
#X obj 310 160 list trim;
#X obj 46 49 t b;
#X obj 263 49 r window-size;
#X msg 263 71 window \$1;
#X obj 46 107 list prepend chain_magSpec;
#X connect 0 0 24 0;
#X connect 1 0 3 1;
#X connect 2 0 9 0;
#X connect 3 0 6 1;
#X connect 4 0 5 0;
#X connect 5 0 11 0;
#X connect 5 0 12 0;
#X connect 5 0 14 0;
#X connect 6 0 2 1;
#X connect 7 0 8 0;
#X connect 8 0 11 0;
#X connect 8 0 12 0;
#X connect 8 0 13 0;
#X connect 8 0 14 0;
#X connect 10 0 1 1;
#X connect 11 0 1 0;
#X connect 12 0 3 0;
#X connect 13 0 6 0;
#X connect 14 0 2 0;
#X connect 15 0 16 0;
#X connect 16 0 11 0;
#X connect 16 0 12 0;
#X connect 16 0 13 0;
#X connect 16 0 14 0;
#X connect 17 0 27 0;
#X connect 18 0 17 1;
#X connect 19 0 14 0;
#X connect 20 0 13 0;
#X connect 21 0 19 0;
#X connect 21 1 20 0;
#X connect 21 2 22 0;
#X connect 21 3 23 0;
#X connect 22 0 12 0;
#X connect 23 0 11 0;
#X connect 24 0 17 0;
#X connect 25 0 26 0;
#X connect 26 0 14 0;
#X connect 26 0 13 0;
#X connect 26 0 12 0;
#X connect 26 0 11 0;
#X connect 27 0 21 0;
#X restore 260 164 pd features-19-22;
#N canvas 199 215 877 448 features-23-25 0;
#X obj 66 8 inlet;
#X obj 46 363 list append;
#X obj 400 293 list append;
#X obj 545 164 r samplerate;
#X msg 545 185 samplerate \$1;
#X obj 230 323 list append;
#X obj 645 164 r current-analysis-sample;
#X msg 645 185 set tID-sample-\$1;
#X obj 46 385 outlet;
#X obj 517 233 inlet;
#X obj 400 202 waveSlope tID-sample--1;
#X obj 230 202 specSpread tID-sample--1;
#X obj 46 202 specSlope tID-sample--1;
#X obj 445 60 r window-function;
#X msg 445 82 window_function \$1;
#X obj 46 76 list;
#X obj 86 76 r \$0-magSpecData;
#X obj 46 127 t l l;
#X obj 66 39 t b a;
#X obj 46 163 list trim;
#X obj 230 165 list trim;
#X obj 263 49 r window-size;
#X msg 263 71 window \$1;
#X text 54 224 NORMALIZATION DEFAULT: ON;
#X obj 46 102 list prepend chain_magSpec;
#X connect 0 0 18 0;
#X connect 1 0 8 0;
#X connect 2 0 5 1;
#X connect 3 0 4 0;
#X connect 4 0 10 0;
#X connect 4 0 12 0;
#X connect 5 0 1 1;
#X connect 6 0 7 0;
#X connect 7 0 10 0;
#X connect 7 0 11 0;
#X connect 7 0 12 0;
#X connect 9 0 2 1;
#X connect 10 0 2 0;
#X connect 11 0 5 0;
#X connect 12 0 1 0;
#X connect 13 0 14 0;
#X connect 14 0 11 0;
#X connect 14 0 12 0;
#X connect 15 0 24 0;
#X connect 16 0 15 1;
#X connect 17 0 19 0;
#X connect 17 1 20 0;
#X connect 18 0 15 0;
#X connect 18 1 10 0;
#X connect 19 0 12 0;
#X connect 20 0 11 0;
#X connect 21 0 22 0;
#X connect 22 0 11 0;
#X connect 22 0 12 0;
#X connect 24 0 17 0;
#X restore 290 124 pd features-23-25;
#N canvas 292 374 1197 613 features-26-and-up 0;
#X obj 474 30 inlet;
#X obj 618 295 list split 1;
#X obj 227 441 list append;
#X obj 445 331 list append;
#X obj 562 353 list append;
#X obj 227 481 outlet;
#X obj 770 118 r samplerate;
#X msg 770 139 samplerate \$1;
#X obj 806 165 r current-analysis-sample;
#X msg 806 186 set tID-sample-\$1;
#N canvas 948 515 816 449 sigmund-pitch-env 0;
#X obj 76 272 moses 21;
#X obj 76 293 t b;
#X msg 76 313 20;
#X obj 76 241 sigmund~ -t pitch env;
#X obj 42 104 list split 1;
#X obj 76 172 list append;
#X obj 165 83 r current-analysis-sample;
#X obj 165 135 pack f f;
#X obj 210 111 r samplerate;
#X obj 76 359 outlet;
#X obj 199 319 outlet;
#X obj 42 7 inlet;
#X msg 76 198 list tID-sample-\$3 \$2 \$1 \$4 0;
#X obj 368 77 r full-sample-mode;
#X obj 42 59 spigot;
#X obj 368 99 swap 1;
#X obj 368 121 -;
#X msg 235 280 -1;
#X msg 275 280 -1;
#X obj 233 231 t b b;
#X obj 305 165 spigot;
#X obj 42 29 t a b;
#X obj 357 153 r current-analysis-sample;
#X obj 305 343 f;
#X obj 430 319 r samplerate;
#X msg 305 385 list tID-sample-\$1 \$2 \$3 \$4 0;
#X obj 305 363 pack f f 0 f;
#X text 542 223 cap sigmund~'s analysis window size to 65536 in the
case of full sample mode \, starting at the beginning of the sample.
If the sample isn't at least 65536 long \, just use a short window
of 1024 samples. This could still produce the "bad npts" sigmund~ error
if the sample is actually shorter than 1024, f 35;
#N canvas 649 575 388 377 power-of-two 0;
#X obj 42 32 inlet;
#X obj 42 78 unpack f f;
#X obj 42 172 pack f f;
#X obj 42 233 outlet;
#X obj 121 106 t b;
#X obj 121 127 f;
#X obj 161 127 r window-size-powTwo;
#X floatatom 189 283 10 0 0 0 - - -;
#X floatatom 194 42 10 0 0 0 - - -;
#X floatatom 103 32 10 0 0 0 - - -;
#X obj 121 172 > 65536;
#X obj 121 194 select 0 1;
#X msg 161 216 65536;
#X obj 121 215 f;
#X obj 121 148 t f f;
#X connect 0 0 1 0;
#X connect 1 0 2 0;
#X connect 1 0 9 0;
#X connect 1 1 4 0;
#X connect 1 1 8 0;
#X connect 2 0 3 0;
#X connect 4 0 5 0;
#X connect 5 0 14 0;
#X connect 6 0 5 1;
#X connect 10 0 11 0;
#X connect 11 0 13 0;
#X connect 11 1 12 0;
#X connect 12 0 2 1;
#X connect 12 0 7 0;
#X connect 13 0 2 1;
#X connect 13 0 7 0;
#X connect 14 0 10 0;
#X connect 14 1 13 1;
#X restore 42 134 pd power-of-two;
#X obj 563 72 r window-size-powTwo;
#X obj 563 119 > 65536;
#X obj 563 141 select 0 1;
#X msg 603 163 65536;
#X obj 563 162 f;
#X obj 563 95 t f f;
#X connect 0 0 1 0;
#X connect 0 1 9 0;
#X connect 1 0 2 0;
#X connect 2 0 9 0;
#X connect 3 0 0 0;
#X connect 3 1 10 0;
#X connect 4 1 28 0;
#X connect 5 0 12 0;
#X connect 6 0 7 0;
#X connect 7 0 5 1;
#X connect 8 0 7 1;
#X connect 11 0 21 0;
#X connect 12 0 3 0;
#X connect 13 0 15 0;
#X connect 13 0 20 1;
#X connect 14 0 4 0;
#X connect 15 0 16 0;
#X connect 15 1 16 1;
#X connect 16 0 14 1;
#X connect 17 0 9 0;
#X connect 18 0 10 0;
#X connect 19 0 17 0;
#X connect 19 1 18 0;
#X connect 20 0 23 0;
#X connect 21 0 14 0;
#X connect 21 1 20 0;
#X connect 22 0 23 1;
#X connect 23 0 26 0;
#X connect 24 0 26 3;
#X connect 25 0 3 0;
#X connect 26 0 25 0;
#X connect 28 0 5 0;
#X connect 29 0 34 0;
#X connect 30 0 31 0;
#X connect 31 0 33 0;
#X connect 31 1 32 0;
#X connect 32 0 26 1;
#X connect 33 0 26 1;
#X connect 34 0 30 0;
#X connect 34 1 33 1;
#X restore 445 282 pd sigmund-pitch-env;
#X obj 96 244 r current-analysis-sample;
#X msg 96 265 set tID-sample-\$1;
#X obj 187 370 zeroCrossing tID-sample--1;
#X obj 618 274 bfcc tID-sample--1 0.5;
#X obj 726 74 r window-function;
#X msg 726 96 window_function \$1;
#N canvas 95 41 1025 765 getCoreFft 0;
#X obj 34 241 list append;
#X obj 34 300 list prepend chain_fftData;
#X obj 34 318 list trim;
#X obj 34 389 magSpec tID-sample--1;
#X obj 221 35 inlet;
#X obj 34 518 list trim;
#X obj 34 480 list prepend chain_magSpec;
#X obj 34 548 barkSpec tID-sample--1 0.5;
#X obj 34 668 list trim;
#X obj 34 640 list prepend chain_barkSpec;
#X obj 34 690 outlet;
#X obj 213 373 r window-size;
#X msg 213 445 window \$1;
#X obj 514 291 list append;
#X obj 514 350 list prepend chain_fftData;
#X obj 514 368 list trim;
#X obj 514 439 magSpec tID-sample--1;
#X obj 514 568 list trim;
#X obj 514 540 list prepend chain_magSpec;
#X obj 514 628 barkSpec tID-sample--1 0.5;
#X obj 539 472 s \$0-magSpecDataRear;
#X obj 539 662 s \$0-barkSpecDataRear;
#X obj 59 582 s \$0-barkSpecData;
#X obj 589 378 r lb1;
#X msg 589 399 normalize 0;
#X obj 589 568 r lb1;
#X msg 589 589 normalize 0;
#X obj 304 389 magSpec tID-sample--1;
#X obj 304 518 list trim;
#X obj 304 490 list prepend chain_magSpec;
#X obj 304 578 barkSpec tID-sample--1 0.5;
#X obj 379 328 r lb1;
#X msg 379 349 normalize 0;
#X obj 379 518 r lb1;
#X msg 379 539 normalize 0;
#X obj 34 204 tID_fft tID-sample--1;
#X obj 514 258 tID_fft tID-sample--1;
#X obj 514 99 unpack s f f;
#X obj 548 126 select 0;
#X obj 514 188 pack s f f;
#X msg 548 156 0;
#X obj 514 209 list trim;
#X obj 594 156 - 256;
#X text 637 155 << 256 sample separation between flux windows was old
default. Could use the incoming window size N to set this too;
#X obj 625 198 r lb1;
#X msg 625 219 normalize 0;
#X obj 221 56 t a a a;
#X obj 329 612 s \$0-barkSpecDataForward;
#X obj 304 241 list append;
#X obj 304 204 tID_fft tID-sample--1;
#X obj 304 300 list prepend chain_fftData;
#X obj 304 318 list trim;
#X obj 348 145 r lb1;
#X msg 348 166 normalize 0;
#X text 406 118 Flux FFT data should not be normalized, f 16;
#X obj 623 39 r samplerate;
#X msg 623 60 samplerate \$1;
#X obj 443 45 r current-analysis-sample;
#X msg 443 66 set tID-sample-\$1;
#X obj 276 50 r window-function;
#X msg 276 72 window_function \$1;
#X obj 59 442 s \$0-magSpecData;
#X obj 329 442 s \$0-magSpecDataForward;
#X obj 403 678 outlet;
#X connect 0 0 1 0;
#X connect 1 0 2 0;
#X connect 2 0 3 0;
#X connect 3 0 61 0;
#X connect 3 0 6 0;
#X connect 4 0 46 0;
#X connect 5 0 7 0;
#X connect 6 0 5 0;
#X connect 7 0 22 0;
#X connect 7 0 9 0;
#X connect 8 0 10 0;
#X connect 9 0 8 0;
#X connect 11 0 12 0;
#X connect 12 0 3 0;
#X connect 12 0 7 0;
#X connect 12 0 16 0;
#X connect 12 0 19 0;
#X connect 12 0 27 0;
#X connect 12 0 30 0;
#X connect 13 0 14 0;
#X connect 14 0 15 0;
#X connect 15 0 16 0;
#X connect 16 0 18 0;
#X connect 16 0 20 0;
#X connect 17 0 19 0;
#X connect 18 0 17 0;
#X connect 19 0 21 0;
#X connect 23 0 24 0;
#X connect 24 0 16 0;
#X connect 25 0 26 0;
#X connect 26 0 19 0;
#X connect 27 0 62 0;
#X connect 27 0 29 0;
#X connect 28 0 30 0;
#X connect 29 0 28 0;
#X connect 30 0 47 0;
#X connect 31 0 32 0;
#X connect 32 0 27 0;
#X connect 33 0 34 0;
#X connect 34 0 30 0;
#X connect 35 0 0 0;
#X connect 35 1 0 1;
#X connect 36 0 13 0;
#X connect 36 1 13 1;
#X connect 37 0 39 0;
#X connect 37 1 38 0;
#X connect 37 2 39 2;
#X connect 38 0 40 0;
#X connect 38 1 42 0;
#X connect 39 0 41 0;
#X connect 40 0 39 1;
#X connect 41 0 36 0;
#X connect 42 0 39 1;
#X connect 44 0 45 0;
#X connect 45 0 36 0;
#X connect 46 0 35 0;
#X connect 46 1 49 0;
#X connect 46 2 37 0;
#X connect 48 0 50 0;
#X connect 49 0 48 0;
#X connect 49 1 48 1;
#X connect 50 0 51 0;
#X connect 51 0 27 0;
#X connect 51 0 63 0;
#X connect 52 0 53 0;
#X connect 53 0 49 0;
#X connect 55 0 56 0;
#X connect 56 0 36 0;
#X connect 56 0 49 0;
#X connect 56 0 35 0;
#X connect 57 0 58 0;
#X connect 58 0 36 0;
#X connect 58 0 49 0;
#X connect 58 0 35 0;
#X connect 59 0 60 0;
#X connect 60 0 36 0;
#X connect 60 0 49 0;
#X connect 60 0 35 0;
#X restore 618 120 pd getCoreFft;
#X obj 839 212 r window-size;
#X msg 839 234 window \$1;
#X text 706 297 NORMALIZATION DEFAULT: ON;
#X obj 839 347 r window-size;
#X msg 839 369 window \$1;
#N canvas 948 307 726 541 get-most-present-pitch-class 0;
#X obj 37 37 inlet;
#X obj 103 312 list prepend 0;
#X obj 103 333 s \$0-chroma-graph;
#X msg 37 369 max;
#X obj 37 390 tabletool \$0-chroma-graph;
#X obj 266 468 outlet;
#X obj 37 58 t b l l;
#X obj 153 102 list length;
#X obj 183 143 pack f \$0;
#X msg 183 164 \; \$2-chroma-graph resize \$1 \;;
#X obj 153 213 / 12;
#X obj 266 377 /;
#X obj 266 398 i;
#X text 201 211 In "half" or "third" mode \, there are 24 or 36 elements
in the HPCP \, so to locate the right pitch class symbol in the list
below \, we need to divide the index by 2 or 3;
#X obj 380 47 table \$0-chroma-graph;
#X obj 266 419 / 12;
#X connect 0 0 6 0;
#X connect 1 0 2 0;
#X connect 3 0 4 0;
#X connect 4 1 11 0;
#X connect 6 0 3 0;
#X connect 6 1 1 0;
#X connect 6 2 7 0;
#X connect 7 0 8 0;
#X connect 7 0 10 0;
#X connect 8 0 9 0;
#X connect 10 0 11 1;
#X connect 11 0 12 0;
#X connect 12 0 15 0;
#X connect 15 0 5 0;
#X restore 751 448 pd get-most-present-pitch-class;
#X obj 475 76 t a b a a;
#X obj 370 355 f;
#X obj 370 376 list append;
#X msg 929 381 print;
#X obj 751 418 chroma tID-sample--1 100 10000 0.05;
#X connect 0 0 24 0;
#X connect 1 1 4 1;
#X connect 2 0 5 0;
#X connect 3 0 26 1;
#X connect 4 0 3 1;
#X connect 6 0 7 0;
#X connect 7 0 14 0;
#X connect 7 0 28 0;
#X connect 8 0 9 0;
#X connect 9 0 14 0;
#X connect 9 0 28 0;
#X connect 10 0 3 0;
#X connect 10 1 4 0;
#X connect 11 0 12 0;
#X connect 12 0 13 0;
#X connect 13 0 2 0;
#X connect 14 0 1 0;
#X connect 15 0 16 0;
#X connect 16 0 14 0;
#X connect 17 0 14 0;
#X connect 17 1 28 0;
#X connect 18 0 19 0;
#X connect 19 0 14 0;
#X connect 21 0 22 0;
#X connect 22 0 28 0;
#X connect 23 0 25 1;
#X connect 24 0 13 0;
#X connect 24 1 25 0;
#X connect 24 2 10 0;
#X connect 24 3 17 0;
#X connect 25 0 26 0;
#X connect 26 0 2 1;
#X connect 27 0 28 0;
#X connect 28 0 23 0;
#X restore 320 84 pd features-26-and-up;
#X text 501 126 1: frame number;
#X text 501 146 2: duration in samples;
#X text 711 346 27: most present pitch class (normalized 0-1);
#X text 711 366 28: pitch;
#X text 711 386 29: amplitude;
#X text 711 406 30-78: BFCCs 1-49 (we dropped BFCC 0);
#X connect 0 0 4 0;
#X connect 4 0 29 0;
#X connect 4 1 30 0;
#X connect 4 2 31 0;
#X connect 4 3 32 0;
#X connect 4 4 33 0;
#X connect 4 5 34 0;
#X connect 4 6 35 0;
#X connect 4 7 36 0;
#X connect 29 0 1 0;
#X connect 30 0 29 1;
#X connect 31 0 30 1;
#X connect 32 0 31 1;
#X connect 33 0 32 1;
#X connect 34 0 33 1;
#X connect 35 0 34 1;
#X connect 36 0 35 1;
#X restore 347 257 pd multiple-analyses;
#X obj 206 348 s feature-length;
#X floatatom 236 326 5 0 0 0 - - -;
#X obj 135 75 t b b b b b;
#X obj 143 524 s \$0-tID;
#X text 317 348 << Currently not received in either audio or display
patch. Will keep in case it's useful later., f 43;
#X obj 179 394 r save-text;
#X obj 179 416 symbol;
#X obj 150 443 symbol;
#X obj 148 470 makefilename ../database/%s;
#X obj 423 417 r feature-length;
#X obj 423 439 print feature-length;
#X msg 148 494 normalize 1 \, write_text \$1;
#X obj 191 29 bng 15 250 50 0 empty empty empty 17 7 0 10 -262144 -1
-1;
#X obj 304 15 r num-samples;
#X obj 304 37 print num-samples;
#X connect 2 0 13 0;
#X connect 4 0 5 1;
#X connect 5 0 12 0;
#X connect 5 0 11 0;
#X connect 6 0 5 0;
#X connect 6 1 10 0;
#X connect 8 0 7 0;
#X connect 10 0 4 0;
#X connect 10 0 0 0;
#X connect 13 0 1 0;
#X connect 13 1 18 0;
#X connect 13 2 6 0;
#X connect 13 3 8 0;
#X connect 13 4 9 0;
#X connect 16 0 17 0;
#X connect 17 0 18 1;
#X connect 18 0 19 0;
#X connect 19 0 22 0;
#X connect 20 0 21 0;
#X connect 22 0 14 0;
#X connect 23 0 13 0;
#X connect 24 0 25 0;
#X restore 80 115 pd analysis;
#N canvas 845 17 445 320 tID-samples 0;
#N canvas 895 61 909 911 load-samples 0;
#X obj 278 379 f;
#X obj 308 379 + 1;
#X msg 296 350 0;
#X obj 674 573 / 5;
#X obj 674 597 i;
#X obj 574 654 pack f f f;
#X obj 607 581 % 5;
#X obj 278 686 soundfiler;
#X obj 674 621 * 50;
#X obj 607 605 * 150;
#X obj 213 317 t b a;
#X obj 159 471 f;
#X obj 159 497 + 1;
#X obj 278 734 list prepend;
#X obj 366 734 t l;
#X obj 257 762 list;
#X obj 257 784 list prepend 0;
#X obj 257 806 s sample-lengths;
#X obj 58 622 s num-samples;
#N canvas 194 162 710 456 reset-stuff 0;
#X obj 62 37 inlet;
#X obj 201 257 t f b;
#X obj 201 280 until;
#X obj 201 333 f;
#X obj 241 333 + 1;
#X msg 226 308 0;
#X obj 201 227 f;
#X obj 216 201 r num-player-voices;
#X msg 208 158 \; pd dsp 0 \;;
#X msg 31 357 \; pd-sample-bank clear \;;
#X msg 201 355 \; play-\$1 0 -1 \;;
#X obj 63 60 t b b b b;
#X obj 302 136 s sample-load-reset;
#X text 301 263 Turn DSP off then back on later so we don't get complaints
from tabplay~ saying the array disappeared. We also have to set all
the tabplay~ arrays to the dummy (-1) array since that'll be the only
thing that will be guaranteed to exist after the clear.;
#X connect 0 0 11 0;
#X connect 1 0 2 0;
#X connect 1 1 5 0;
#X connect 2 0 3 0;
#X connect 3 0 4 0;
#X connect 3 0 10 0;
#X connect 4 0 3 1;
#X connect 5 0 3 1;
#X connect 6 0 1 0;
#X connect 7 0 6 1;
#X connect 11 0 9 0;
#X connect 11 1 6 0;
#X connect 11 2 8 0;
#X connect 11 3 12 0;
#X restore 332 254 pd reset-stuff;
#X obj 347 709 r sample-load-reset;
#X obj 296 328 r sample-load-reset;
#X obj 278 630 pack f s f;
#X msg 278 662 read -resize -maxsize \$3 \$2 tID-sample-\$1;
#X text 373 630 set maxsize in [pd init];
#X obj 334 601 r max-sample-length;
#X obj 278 430 t f f f f;
#N canvas 532 140 593 408 rebound-samp-lengths 0;
#X msg 211 148 max;
#X obj 285 142 - 1;
#X obj 178 71 moses 2;
#X msg 33 205 max;
#X obj 33 178 t b;
#X text 43 345 Special case for num-samples==1;
#X obj 178 36 inlet;
#X obj 33 227 tabletool sample-lengths;
#X obj 33 258 max 1;
#X obj 211 170 tabletool sample-lengths;
#X obj 211 201 max 1;
#X obj 259 232 pack f f;
#X msg 259 272 \; sample-lengths bounds 0 \$1 \$2 0 \;;
#X obj 239 101 t b f;
#X msg 33 291 \; sample-lengths 1 0 \;;
#X connect 0 0 9 0;
#X connect 1 0 11 1;
#X connect 2 0 4 0;
#X connect 2 1 13 0;
#X connect 3 0 7 0;
#X connect 4 0 3 0;
#X connect 6 0 2 0;
#X connect 7 0 8 0;
#X connect 8 0 14 0;
#X connect 9 0 10 0;
#X connect 10 0 11 0;
#X connect 13 0 0 0;
#X connect 13 1 1 0;
#X restore 124 590 pd rebound-samp-lengths;
#X obj 159 522 t f f b f;
#X obj 179 10 r filenames-list;
#X obj 476 319 text define filenames;
#X msg 476 286 read -c \$1;
#X obj 476 246 symbol;
#X obj 179 82 t b b b b a;
#X obj 228 155 text size filenames;
#X obj 213 180 f;
#X obj 213 202 t f b;
#X obj 203 234 until;
#X obj 213 266 f;
#X obj 243 268 + 1;
#X obj 213 290 text get filenames;
#X msg 241 244 0;
#X msg 29 286 \; pd dsp 1 \; file-loading-finished bang \;;
#X obj 179 52 makefilename ../filename-lists/%s;
#X obj 179 32 symbol;
#X obj 480 740 list split 1;
#X obj 480 786 list prepend;
#X obj 568 786 t l;
#X obj 459 814 list;
#X obj 459 836 list prepend 0;
#X obj 549 761 r sample-load-reset;
#X obj 459 858 s samplerates;
#N canvas 532 140 851 630 resize-samp-lengths-and-rates 0;
#X text 11 56 Special case for num-samples==1;
#X obj 108 36 inlet;
#X obj 98 80 moses 2;
#X obj 99 110 bang;
#X obj 99 132 f 2;
#X obj 99 154 t b f;
#X msg 99 176 1 0;
#X obj 99 198 array set sample-frames;
#X obj 188 161 array size sample-lengths;
#X obj 280 192 array size samplerates;
#X connect 1 0 2 0;
#X connect 2 0 3 0;
#X connect 2 1 8 0;
#X connect 2 1 9 0;
#X connect 3 0 4 0;
#X connect 4 0 5 0;
#X connect 5 0 6 0;
#X connect 5 1 8 0;
#X connect 5 1 9 0;
#X connect 6 0 7 0;
#X restore 222 553 pd resize-samp-lengths-and-rates;
#N canvas 650 359 450 300 load-failed-post 0;
#X obj 46 40 inlet;
#X obj 46 102 select 0;
#X obj 46 254 s audio-post;
#X msg 46 143 audio file failed to load \, is the file in timbreID-examples/audio?
\, is there a space in the file name?;
#X connect 0 0 1 0;
#X connect 1 0 3 0;
#X connect 3 0 2 0;
#X restore 93 752 pd load-failed-post;
#X msg 593 128 44100;
#X obj 593 150 * 25;
#X obj 593 172 s max-sample-length;
#X msg 574 684 \; pd-sample-bank obj \$2 \$3 array define tID-sample-\$1
;
#X connect 0 0 1 0;
#X connect 0 0 11 1;
#X connect 0 0 26 0;
#X connect 1 0 0 1;
#X connect 2 0 0 1;
#X connect 3 0 4 0;
#X connect 4 0 8 0;
#X connect 5 0 57 0;
#X connect 6 0 9 0;
#X connect 7 0 13 0;
#X connect 7 0 53 0;
#X connect 7 1 45 0;
#X connect 8 0 5 2;
#X connect 9 0 5 1;
#X connect 10 0 0 0;
#X connect 10 1 22 1;
#X connect 11 0 12 0;
#X connect 12 0 28 0;
#X connect 13 0 14 0;
#X connect 13 0 15 1;
#X connect 14 0 13 1;
#X connect 15 0 16 0;
#X connect 16 0 17 0;
#X connect 20 0 13 1;
#X connect 21 0 2 0;
#X connect 22 0 23 0;
#X connect 23 0 7 0;
#X connect 25 0 22 2;
#X connect 26 0 22 0;
#X connect 26 1 5 0;
#X connect 26 2 6 0;
#X connect 26 3 3 0;
#X connect 28 0 18 0;
#X connect 28 1 27 0;
#X connect 28 2 15 0;
#X connect 28 2 48 0;
#X connect 28 3 52 0;
#X connect 29 0 44 0;
#X connect 31 0 30 0;
#X connect 32 0 31 0;
#X connect 33 0 42 0;
#X connect 33 1 11 0;
#X connect 33 2 35 0;
#X connect 33 3 19 0;
#X connect 33 3 34 0;
#X connect 33 4 32 0;
#X connect 34 0 35 1;
#X connect 35 0 36 0;
#X connect 36 0 37 0;
#X connect 36 1 41 0;
#X connect 37 0 38 0;
#X connect 38 0 39 0;
#X connect 38 0 40 0;
#X connect 39 0 38 1;
#X connect 40 0 10 0;
#X connect 41 0 38 1;
#X connect 43 0 33 0;
#X connect 44 0 43 0;
#X connect 45 0 46 0;
#X connect 46 0 47 0;
#X connect 46 0 48 1;
#X connect 47 0 46 1;
#X connect 48 0 49 0;
#X connect 49 0 51 0;
#X connect 50 0 46 1;
#X connect 54 0 55 0;
#X connect 55 0 56 0;
#X restore 9 22 pd load-samples;
#N canvas 280 208 874 622 sample-bank 0;
#X obj 0 0 array define tID-sample-0;
#X obj 150 0 array define tID-sample-1;
#X obj 300 0 array define tID-sample-2;
#X obj 450 0 array define tID-sample-3;
#X obj 600 0 array define tID-sample-4;
#X obj 0 50 array define tID-sample-5;
#X obj 150 50 array define tID-sample-6;
#X obj 300 50 array define tID-sample-7;
#X obj 450 50 array define tID-sample-8;
#X obj 600 50 array define tID-sample-9;
#X restore 9 82 pd sample-bank;
#N canvas 464 323 854 716 get-num-frames 0;
#X msg 161 496 max;
#X obj 260 459 - 1;
#X obj 161 526 tabletool sample-frames;
#X msg 404 386 sum;
#X obj 427 412 tabletool sample-frames;
#X obj 169 27 r num-samples;
#N canvas 12 219 653 643 get-frame-locations 0;
#X obj 94 13 inlet;
#X obj 324 133 until;
#X obj 324 249 f;
#X obj 364 249 + 1;
#X msg 349 224 0;
#X obj 324 479 tabwrite frame-locations;
#X obj 324 332 until;
#X obj 368 372 f;
#X obj 408 372 + 1;
#X msg 393 347 0;
#X obj 324 302 tabread sample-frames;
#X obj 368 398 t b f;
#X obj 324 432 f;
#X obj 324 272 t f f;
#X msg 64 391 max;
#X obj 64 421 tabletool frame-locations;
#X obj 125 475 - 1;
#X obj 64 530 pack f f;
#X obj 94 59 t b f b;
#X obj 125 455 r num-frames-total;
#X msg 64 581 \; frame-locations bounds 0 \$1 \$2 0 \;;
#X obj 64 443 max 1;
#X obj 125 497 max 1;
#X connect 0 0 18 0;
#X connect 1 0 2 0;
#X connect 2 0 3 0;
#X connect 2 0 13 0;
#X connect 3 0 2 1;
#X connect 4 0 2 1;
#X connect 6 0 7 0;
#X connect 7 0 8 0;
#X connect 7 0 11 0;
#X connect 8 0 7 1;
#X connect 9 0 7 1;
#X connect 10 0 6 0;
#X connect 11 0 12 0;
#X connect 11 1 5 1;
#X connect 12 0 5 0;
#X connect 13 0 10 0;
#X connect 13 1 12 1;
#X connect 14 0 15 0;
#X connect 15 0 21 0;
#X connect 16 0 22 0;
#X connect 18 0 14 0;
#X connect 18 1 1 0;
#X connect 18 2 4 0;
#X connect 18 2 9 0;
#X connect 19 0 16 0;
#X connect 21 0 17 0;
#X connect 22 0 17 1;
#X restore 25 184 pd get-frame-locations;
#X obj 496 178 moses 2;
#X obj 221 430 moses 2;
#N canvas 790 307 1093 751 get-number-of-frames 0;
#X obj 60 60 t f b;
#X obj 60 83 until;
#X obj 60 136 f;
#X obj 100 136 + 1;
#X msg 75 111 0;
#X obj 425 176 tabread sample-lengths;
#X obj 30 384 tabwrite sample-frames;
#X msg 319 451 list tID-sample-\$3 \$2 \$1 \$4 0;
#X obj 60 32 inlet;
#X obj 292 224 until;
#X obj 413 390 r samplerate;
#X obj 319 421 pack f f f f;
#X obj 319 296 f;
#X msg 334 266 0;
#X obj 359 296 +;
#X obj 30 360 f;
#X obj 410 218 >;
#X obj 425 198 -;
#X obj 410 240 select 1;
#X obj 460 198 r window-size;
#X obj 59 331 f;
#X msg 74 301 1;
#X obj 319 552 >=;
#X obj 334 522 r db-thresh;
#X obj 99 331 + 1;
#X obj 319 574 select 1;
#X obj 359 318 t f f;
#X obj 396 73 s get-num-frames-reset;
#X obj 366 266 r get-num-frames-reset;
#X obj 59 256 r get-num-frames-reset;
#X obj 336 102 s get-num-frames-sample-idx;
#X obj 425 149 r get-num-frames-sample-idx;
#X obj 399 366 r get-num-frames-sample-idx;
#X obj 103 356 r get-num-frames-sample-idx;
#X obj 275 34 t b b f b;
#X text 426 326 Traverse the sample and check that each frame is above
our db-thresh \, keeping count of those that are.;
#X msg 30 298 0;
#X obj 319 494 sigmund~ -t env;
#X obj 301 330 t f f f;
#X obj 464 628 f;
#X text 594 673 not the "get-num-frames-reset" \, because that starts
over on every sample;
#X obj 464 670 list prepend;
#X obj 552 670 t l;
#X obj 533 643 r sample-load-reset;
#X obj 464 692 outlet;
#X obj 645 203 r full-sample-mode;
#X obj 645 225 swap 1;
#X obj 645 247 -;
#X obj 292 197 spigot;
#X obj 242 257 spigot;
#X msg 242 279 1;
#X obj 242 301 t b f;
#X obj 410 297 r window-size-powTwo;
#X connect 0 0 1 0;
#X connect 0 1 4 0;
#X connect 1 0 2 0;
#X connect 2 0 3 0;
#X connect 2 0 34 0;
#X connect 3 0 2 1;
#X connect 4 0 2 1;
#X connect 5 0 17 0;
#X connect 7 0 37 0;
#X connect 8 0 0 0;
#X connect 9 0 12 0;
#X connect 10 0 11 3;
#X connect 11 0 7 0;
#X connect 12 0 38 0;
#X connect 13 0 12 1;
#X connect 14 0 26 0;
#X connect 15 0 6 0;
#X connect 16 0 18 0;
#X connect 17 0 16 1;
#X connect 18 0 9 1;
#X connect 19 0 17 1;
#X connect 20 0 15 1;
#X connect 20 0 24 0;
#X connect 21 0 20 1;
#X connect 22 0 25 0;
#X connect 23 0 22 1;
#X connect 24 0 20 1;
#X connect 25 0 20 0;
#X connect 25 0 39 0;
#X connect 26 0 12 1;
#X connect 26 1 16 0;
#X connect 28 0 13 0;
#X connect 29 0 21 0;
#X connect 29 0 36 0;
#X connect 31 0 5 0;
#X connect 32 0 11 2;
#X connect 33 0 6 1;
#X connect 34 0 15 0;
#X connect 34 1 48 0;
#X connect 34 1 49 0;
#X connect 34 2 30 0;
#X connect 34 3 27 0;
#X connect 36 0 15 1;
#X connect 37 0 22 0;
#X connect 38 0 11 0;
#X connect 38 1 39 1;
#X connect 38 2 14 0;
#X connect 39 0 41 0;
#X connect 41 0 42 0;
#X connect 41 0 44 0;
#X connect 42 0 41 1;
#X connect 43 0 41 1;
#X connect 45 0 46 0;
#X connect 45 0 49 1;
#X connect 46 0 47 0;
#X connect 46 1 47 1;
#X connect 47 0 48 1;
#X connect 48 0 9 0;
#X connect 49 0 50 0;
#X connect 50 0 51 0;
#X connect 51 0 20 0;
#X connect 51 1 41 0;
#X connect 52 0 11 1;
#X connect 52 0 14 1;
#X restore 270 177 pd get-number-of-frames;
#X obj 161 240 list;
#X obj 161 262 list prepend 0;
#X obj 161 284 s frame-start-samp;
#X obj 169 70 t f b f f f;
#X obj 223 348 t b f b;
#X text 504 319 Special case for num-samples==1;
#X msg 275 33 10;
#X obj 586 259 array size sample-frames;
#X obj 497 208 bang;
#X obj 497 230 f 2;
#X obj 497 252 t b f;
#X msg 497 274 1 0;
#X obj 497 296 array set sample-frames;
#X msg 564 92 10;
#X obj 480 446 t f f;
#X obj 532 464 array size frame-locations;
#X obj 484 488 array size frame-start-samp;
#X obj 209 555 pack f f;
#X obj 425 457 t f f;
#X obj 445 528 s num-frames-total;
#X msg 210 596 \; sample-frames bounds 0 \$1 \$2 0 \;;
#X connect 0 0 2 0;
#X connect 1 0 27 1;
#X connect 2 0 27 0;
#X connect 3 0 4 0;
#X connect 4 0 28 0;
#X connect 5 0 13 0;
#X connect 7 0 18 0;
#X connect 7 1 17 0;
#X connect 8 0 27 1;
#X connect 8 1 1 0;
#X connect 9 0 10 1;
#X connect 10 0 11 0;
#X connect 11 0 12 0;
#X connect 13 0 6 0;
#X connect 13 1 10 0;
#X connect 13 2 14 0;
#X connect 13 3 9 0;
#X connect 13 4 7 0;
#X connect 14 0 0 0;
#X connect 14 1 8 0;
#X connect 14 2 3 0;
#X connect 16 0 13 0;
#X connect 18 0 19 0;
#X connect 19 0 20 0;
#X connect 20 0 21 0;
#X connect 20 1 17 0;
#X connect 21 0 22 0;
#X connect 23 0 17 0;
#X connect 24 0 26 0;
#X connect 24 1 25 0;
#X connect 28 0 29 0;
#X connect 28 1 24 0;
#X restore 9 52 pd get-num-frames;
#N canvas 412 79 560 268 notes 0;
#X text 52 50 For each sample \, find out how many frames are in it
based on window size \, hop \, and sample length.;
#X text 50 127 Get numFrames for all samples. Sum up all the numFrames
for all samples \, and make a table of that length. That'll be our
lookup table to see which sample houses frame number X when it comes
out of timbreID;
#X restore 274 253 pd notes;
#X obj 132 82 table tID-sample--1;
#X text 268 82 A dummy table;
#X obj 9 202 array define sample-frames;
#X obj 9 232 array define frame-locations;
#X obj 9 262 array define frame-start-samp;
#X obj 9 172 array define samplerates;
#X obj 9 142 array define sample-lengths;
#X restore 373 44 pd tID-samples;
#N canvas 984 353 674 417 grain-info 0;
#X obj 45 310 r samplerate;
#X obj 25 333 /;
#X obj 45 31 r current-playback-frame;
#X obj 377 51 r current-playback-sample;
#X obj 45 224 t f f;
#X obj 185 290 r samplerate;
#X obj 165 313 /;
#X obj 185 240 r window-size;
#X obj 165 263 +;
#X obj 45 374 s grain-info-seconds-start-set;
#X obj 377 187 s grain-info-file-name-set;
#X obj 155 344 s grain-info-seconds-end-set;
#X obj 437 105 s grain-info-sample-number-set;
#X obj 81 159 s grain-info-frame-number-set;
#X obj 45 202 tabread frame-start-samp;
#X obj 377 133 text get filenames;
#X obj 377 73 t f f;
#X obj 377 155 symbol;
#X obj 218 34 r full-sample-mode;
#X obj 218 56 swap 1;
#X obj 218 78 -;
#X obj 45 120 spigot;
#X obj 163 95 spigot;
#X msg 108 127 -1;
#X msg 72 341 0;
#X obj 351 260 tabread sample-lengths;
#X obj 351 281 /;
#X obj 391 281 tabread samplerates;
#X obj 163 116 t b f f;
#X obj 45 52 t f f;
#X connect 0 0 1 1;
#X connect 1 0 9 0;
#X connect 2 0 29 0;
#X connect 3 0 16 0;
#X connect 4 0 1 0;
#X connect 4 1 8 0;
#X connect 5 0 6 1;
#X connect 6 0 11 0;
#X connect 7 0 8 1;
#X connect 8 0 6 0;
#X connect 14 0 4 0;
#X connect 15 0 17 0;
#X connect 16 0 15 0;
#X connect 16 1 12 0;
#X connect 17 0 10 0;
#X connect 18 0 19 0;
#X connect 18 0 22 1;
#X connect 19 0 20 0;
#X connect 19 1 20 1;
#X connect 20 0 21 1;
#X connect 21 0 13 0;
#X connect 21 0 14 0;
#X connect 22 0 28 0;
#X connect 23 0 13 0;
#X connect 24 0 9 0;
#X connect 25 0 26 0;
#X connect 26 0 11 0;
#X connect 27 0 26 1;
#X connect 28 0 23 0;
#X connect 28 0 24 0;
#X connect 28 1 25 0;
#X connect 28 2 27 0;
#X connect 29 0 21 0;
#X connect 29 1 22 0;
#X restore 373 64 pd grain-info;
#X obj 80 42 r do-analysis;
#X obj 62 83 bng 15 250 50 0 empty empty empty 17 7 0 10 -262144 -1
-1;
#X obj 60 151 bng 15 250 50 0 empty empty empty 17 7 0 10 -262144 -1
-1;
#X obj 80 187 s analysis-finished;
#X obj 214 32 r file-loading-finished;
#X obj 214 56 spigot;
#X obj 270 54 r continue;
#X obj 46 87 bng 15 250 50 0 empty empty empty 17 7 0 10 -262144 -1
-1;
#X obj 287 138 r analysis-finished;
#X obj 287 160 spigot;
#X msg 287 182 \; pd quit;
#X obj 331 158 r continue;
#X msg 214 78 \; do-analysis bang;
#X connect 0 0 5 0;
#X connect 0 0 6 0;
#X connect 3 0 0 0;
#X connect 3 0 4 0;
#X connect 7 0 8 0;
#X connect 8 0 15 0;
#X connect 9 0 8 1;
#X connect 10 0 0 0;
#X connect 11 0 12 0;
#X connect 12 0 13 0;
#X connect 14 0 12 1;
#X restore 48 59 pd analysis;
#N canvas 984 424 456 316 masterprocess-sends 0;
#X obj 51 43 masterprocess-send analysis-finished;
#X obj 51 63 masterprocess-send num-frames-total;
#X obj 51 123 masterprocess-send grain-info-frame-number-set;
#X obj 51 143 masterprocess-send grain-info-seconds-end-set;
#X obj 51 163 masterprocess-send grain-info-seconds-start-set;
#X obj 51 83 masterprocess-send grain-info-file-name-set;
#X obj 51 103 masterprocess-send grain-info-sample-number-set;
#X obj 51 23 masterprocess-send file-loading-finished;
#X obj 51 183 masterprocess-send audio-process-loadbang;
#X obj 51 203 masterprocess-send audio-cpu;
#X obj 51 223 masterprocess-send audio-post;
#X restore 154 11 pd masterprocess-sends;
#X obj 48 199 r window-size;
#X floatatom 48 220 15 0 0 0 - - -;
#X obj 202 178 cpumeter;
#N canvas 822 277 618 367 audio-output 0;
#X obj 82 301 dac~;
#X obj 116 28 catch~ grain-bus;
#X obj 39 168 *~;
#X obj 82 268 +~;
#X obj 173 194 rev3~ 100 90 3000 20;
#X floatatom 276 100 0 0 100 0 - - -;
#X text 315 61 liveness \, 0-100;
#X floatatom 341 159 4 0 5000 0 - - -;
#X floatatom 379 230 0 0 100 0 - - -;
#X text 389 157 crossover frequency \, Hz.;
#X text 415 232 HF damping \, percent;
#X obj 132 268 +~;
#X obj 88 89 r dry-gain;
#X obj 88 110 dbtorms;
#X obj 88 131 pack f 40;
#X obj 88 152 line~;
#X obj 235 34 r wet-gain;
#X obj 276 78 r reverb-liveness;
#X floatatom 235 55 5 0 0 0 - - -;
#X obj 342 133 r reverb-crossover;
#X obj 377 208 r reverb-damping;
#X connect 1 0 2 0;
#X connect 1 0 4 0;
#X connect 2 0 3 0;
#X connect 2 0 11 0;
#X connect 3 0 0 0;
#X connect 4 0 3 1;
#X connect 4 1 11 1;
#X connect 5 0 4 3;
#X connect 7 0 4 4;
#X connect 8 0 4 5;
#X connect 11 0 0 1;
#X connect 12 0 13 0;
#X connect 13 0 14 0;
#X connect 14 0 15 0;
#X connect 15 0 2 1;
#X connect 16 0 18 0;
#X connect 17 0 5 0;
#X connect 18 0 4 2;
#X connect 19 0 7 0;
#X connect 20 0 8 0;
#X restore 306 10 pd audio-output;
#X obj 202 223 s audio-cpu;
#X msg 165 47 \; continue 1 \; full-sample-mode 0 \; max-sample-length
970200 \; window-size 16384 \; db-thresh 40 \; save-text colorsounds-1-a.txt
\; filenames-list colorsounds-1.txt;
#X connect 5 0 6 0;
#X connect 7 0 9 0;
