#N canvas 804 119 540 711 10;
#X obj 95 262 t b f;
#X obj 95 17 r play-\$1;
#X obj 95 642 throw~ grain-bus;
#X msg 264 404 set tID-sample-\$1;
#X obj 95 211 spigot;
#X obj 245 211 spigot;
#X obj 278 191 r full-sample-mode;
#X obj 128 167 swap 1;
#X obj 128 189 -;
#X obj 128 147 r full-sample-mode;
#X obj 95 613 *~;
#X obj 302 555 dbtorms;
#X obj 95 531 tabread4~;
#X obj 95 109 t f b;
#X obj 95 456 vline~;
#X obj 387 462 r \$0-playDur;
#X obj 387 483 delay;
#X msg 327 524 0;
#X msg 21 392 -0.25;
#X obj 21 364 loadbang;
#N canvas 969 475 500 411 playhead-msg 0;
#X obj 58 19 inlet;
#X obj 115 92 r window-size;
#X msg 58 227 0 \, \$1 \$2;
#X obj 58 136 f;
#X obj 58 197 pack f f;
#X obj 279 118 t b f;
#X msg 279 139 2;
#X obj 279 160 pow;
#X obj 279 252 /;
#X obj 279 191 *;
#X obj 339 191 r window-size;
#X obj 279 293 * 1000;
#X obj 58 349 outlet;
#X obj 279 314 s \$0-playDur;
#X obj 319 232 r \$0-tableID;
#X obj 279 97 f;
#X obj 302 70 r \$0-transpo;
#X obj 58 40 t b b;
#X obj 58 157 - 1;
#X obj 319 252 tabread samplerates;
#X obj 319 140 / -12;
#X connect 0 0 17 0;
#X connect 1 0 3 1;
#X connect 2 0 12 0;
#X connect 3 0 18 0;
#X connect 4 0 2 0;
#X connect 5 0 6 0;
#X connect 5 1 20 0;
#X connect 6 0 7 0;
#X connect 7 0 9 0;
#X connect 8 0 11 0;
#X connect 9 0 8 0;
#X connect 10 0 9 1;
#X connect 11 0 4 1;
#X connect 11 0 13 0;
#X connect 14 0 19 0;
#X connect 15 0 5 0;
#X connect 16 0 15 1;
#X connect 17 0 3 0;
#X connect 17 1 15 0;
#X connect 18 0 4 0;
#X connect 19 0 8 1;
#X connect 20 0 7 1;
#X restore 95 335 pd playhead-msg;
#N canvas 923 203 505 418 playhead-msg-full-sample 0;
#X obj 58 19 inlet;
#X msg 58 227 0 \, \$1 \$2;
#X obj 58 136 f;
#X obj 58 197 pack f f;
#X obj 279 118 t b f;
#X msg 279 139 2;
#X obj 279 160 pow;
#X obj 279 212 /;
#X obj 279 191 *;
#X obj 279 233 * 1000;
#X obj 58 349 outlet;
#X obj 279 254 s \$0-playDur;
#X obj 81 106 tabread sample-lengths;
#X obj 279 88 f;
#X obj 58 40 t b b;
#X obj 81 86 r \$0-tableID;
#X obj 319 192 r \$0-tableID;
#X obj 303 51 r \$0-transpo;
#X obj 58 157 - 1;
#X obj 319 212 tabread samplerates;
#X obj 319 140 / -12;
#X connect 0 0 14 0;
#X connect 1 0 10 0;
#X connect 2 0 18 0;
#X connect 3 0 1 0;
#X connect 4 0 5 0;
#X connect 4 1 20 0;
#X connect 5 0 6 0;
#X connect 6 0 8 0;
#X connect 7 0 9 0;
#X connect 8 0 7 0;
#X connect 9 0 3 1;
#X connect 9 0 11 0;
#X connect 12 0 2 1;
#X connect 12 0 8 1;
#X connect 13 0 4 0;
#X connect 14 0 2 0;
#X connect 14 1 13 0;
#X connect 15 0 12 0;
#X connect 16 0 19 0;
#X connect 17 0 13 1;
#X connect 18 0 3 0;
#X connect 19 0 7 1;
#X connect 20 0 6 1;
#X restore 245 335 pd playhead-msg-full-sample;
#X obj 245 262 t b b;
#X msg 283 294 0;
#X obj 166 109 s \$0-tableID;
#X obj 264 378 r \$0-tableID;
#X obj 356 109 s \$0-transpo;
#X obj 256 109 s \$0-volume;
#X obj 302 459 r \$0-volume;
#X obj 95 582 *~;
#N canvas 229 107 309 296 enveloping 0;
#X obj 39 28 inlet~;
#X obj 39 249 outlet~;
#X obj 39 161 cos~;
#X obj 39 96 /~;
#X obj 39 117 *~ 0.5;
#X obj 39 138 -~ 0.25;
#X obj 54 66 r window-size;
#X obj 158 109 r full-sample-mode;
#X obj 39 182 *~;
#X obj 89 182 *~;
#X obj 89 161 sig~ 1;
#X obj 108 100 swap 1;
#X obj 108 121 -;
#X connect 0 0 3 0;
#X connect 2 0 8 0;
#X connect 3 0 4 0;
#X connect 4 0 5 0;
#X connect 5 0 2 0;
#X connect 6 0 3 1;
#X connect 7 0 9 1;
#X connect 7 0 11 0;
#X connect 8 0 1 0;
#X connect 9 0 1 0;
#X connect 10 0 9 0;
#X connect 11 0 12 0;
#X connect 11 1 12 1;
#X connect 12 0 8 1;
#X restore 192 532 pd enveloping;
#X obj 387 564 s grainOff;
#X obj 387 543 f;
#X obj 95 39 unpack f f f f f;
#X text 255 18 \$1: starting sample \; \$2: table ID number \; \$3:
volume in dB \; \$4: transpo (semitones) \; \$5: grain ID number \;
, f 26;
#X connect 0 0 20 0;
#X connect 0 1 12 1;
#X connect 1 0 33 0;
#X connect 3 0 12 0;
#X connect 4 0 0 0;
#X connect 5 0 22 0;
#X connect 6 0 5 1;
#X connect 7 0 8 0;
#X connect 7 1 8 1;
#X connect 8 0 4 1;
#X connect 9 0 7 0;
#X connect 10 0 2 0;
#X connect 11 0 10 1;
#X connect 12 0 29 0;
#X connect 13 0 4 0;
#X connect 13 1 5 0;
#X connect 14 0 12 0;
#X connect 14 0 30 0;
#X connect 15 0 16 0;
#X connect 16 0 17 0;
#X connect 16 0 32 0;
#X connect 17 0 11 0;
#X connect 18 0 14 0;
#X connect 19 0 18 0;
#X connect 20 0 14 0;
#X connect 21 0 14 0;
#X connect 22 0 21 0;
#X connect 22 1 23 0;
#X connect 23 0 12 1;
#X connect 25 0 3 0;
#X connect 28 0 11 0;
#X connect 29 0 10 0;
#X connect 30 0 29 1;
#X connect 32 0 31 0;
#X connect 33 0 13 0;
#X connect 33 1 24 0;
#X connect 33 2 27 0;
#X connect 33 3 26 0;
#X connect 33 4 32 1;
