#N canvas 939 70 732 367 10;
#X obj 14 14 cnv 8 100 8 empty sequence-\$1-background-set empty 20
12 0 14 -258049 -262144 0;
#N canvas 430 446 372 424 setColor 0;
#X obj 79 47 f \$1;
#X obj 79 68 select 0 1 2 3 4;
#X msg 79 89 255 0 0;
#X obj 79 240 unpack f f f;
#X obj 49 6 loadbang;
#X obj 49 27 t b b;
#X obj 49 278 canvasSetColor;
#X obj 49 299 pack f \$1;
#X msg 49 328 \; sequence-\$2-background-set color \$1 0 0 \;;
#X msg 99 109 0 255 0;
#X msg 119 129 0 0 255;
#X msg 139 149 255 255 0;
#X msg 159 169 156 0 255;
#X connect 0 0 1 0;
#X connect 1 0 2 0;
#X connect 1 1 9 0;
#X connect 1 2 10 0;
#X connect 1 3 11 0;
#X connect 1 4 12 0;
#X connect 2 0 3 0;
#X connect 3 0 6 1;
#X connect 3 1 6 2;
#X connect 3 2 6 3;
#X connect 4 0 5 0;
#X connect 5 0 6 0;
#X connect 5 1 0 0;
#X connect 6 0 7 0;
#X connect 7 0 8 0;
#X connect 9 0 3 0;
#X connect 10 0 3 0;
#X connect 11 0 3 0;
#X connect 12 0 3 0;
#X restore 322 24 pd setColor;
#X obj 20 50 tgl 15 0 sequence-\$1-switch sequence-\$1-switch-set active
17 7 0 10 -262144 -1 -1 1 1;
#X floatatom 20 30 5 0 12000 1 time sequence-#1-time-set sequence-#1-time
;
#X obj 20 70 bng 15 250 50 0 seq-\$1-clear seq-\$1-clear-set clear
17 7 0 10 -262144 -1 -1;
#X obj 23 90 hsl 128 15 40 112 0 0 seq-\$1-gain seq-\$1-gain-set gain
8 8 0 10 -262144 -1 -1 7700 1;
#X obj 100 50 hradio 15 1 0 5 sequence-\$1-mode sequence-\$1-mode-set
play-mode 0 -8 0 10 -262144 -1 -1 0;
#X floatatom 100 70 5 1 999999 1 random-walk-step sequence-#1-random-walk-mag-set
sequence-#1-random-walk-mag;
#X obj 140 120 bng 15 250 50 0 sequence-\$1-duration-table-vis empty
duration-table 17 7 0 10 -262144 -1 -1;
#X obj 140 140 bng 15 250 50 0 sequence-\$1-duration-random sequence-\$1-duration-random-set
random-durations 17 7 0 10 -262144 -1 -1;
#X obj 20 110 tgl 15 0 sequence-\$1-record-durations sequence-\$1-record-durations-set
record-rhythm 17 7 0 10 -262144 -1 -1 0 1;
#X floatatom 20 150 5 0 0 1 progress sequence-#1-record-progress-set
-;
#X floatatom 218 20 5 0 0 3 length sequence-#1-length -;
#X obj 313 86 r sequence-\$1-time-unit;
#X obj 313 161 vline~;
#X obj 313 182 *~;
#X obj 345 182 osc~ 1000;
#X obj 313 110 spigot;
#X msg 313 140 0 \, 0.01 0 \, 0 0 50;
#X obj 361 110 r sequence-\$1-record-durations;
#X obj 313 262 *~;
#X obj 313 303 throw~ metronome-audio;
#X floatatom 20 130 5 0 100 1 metronome - -;
#X obj 345 231 dbtorms;
#X obj 345 252 pack f 40;
#X obj 345 273 line~;
#X obj 140 160 bng 15 250 50 0 sequence-\$1-duration-reset sequence-\$1-duration-reset-set
reset-durations 17 7 0 10 -262144 -1 -1;
#X obj 88 232 r sequence-global-gain;
#X obj 88 253 s seq-\$1-gain-set;
#N canvas 671 163 665 293 store-params 0;
#X obj 120 42 r sequence-\$1-random-walk-mag;
#X obj 326 42 r sequence-\$1-mode;
#X obj 464 42 r sequence-\$1-time;
#X obj 26 42 r seq-\$1-gain;
#X obj 423 168 table sequence-\$1-params 4;
#X obj 120 63 t f b;
#X obj 80 205 tabwrite sequence-\$1-params;
#X obj 326 63 t f b;
#X obj 464 63 t f b;
#X obj 26 63 t f b;
#X msg 262 156 0;
#X msg 292 156 1;
#X msg 322 156 2;
#X msg 353 156 3;
#X connect 0 0 5 0;
#X connect 1 0 7 0;
#X connect 2 0 8 0;
#X connect 3 0 9 0;
#X connect 5 0 6 0;
#X connect 5 1 13 0;
#X connect 7 0 6 0;
#X connect 7 1 12 0;
#X connect 8 0 6 0;
#X connect 8 1 11 0;
#X connect 9 0 6 0;
#X connect 9 1 10 0;
#X connect 10 0 6 1;
#X connect 11 0 6 1;
#X connect 12 0 6 1;
#X connect 13 0 6 1;
#X restore 497 269 pd store-params;
#N canvas 205 368 1017 611 save-params 0;
#X obj 60 5 inlet;
#X text 620 75 sequence-table-\$1;
#X text 620 95 sequence-\$1-durations;
#X text 620 135 sequence-\$1-time;
#X text 621 155 sequence-\$1-mode;
#X text 621 175 sequence-\$1-random-walk-mag;
#X text 621 115 seq-\$1-gain;
#X text 621 205 Write one file per sequencer;
#X text 621 225 Should have global save/load as well as per-sequencer
save/load;
#X msg 496 118 clear;
#X msg 299 291 dump;
#X obj 563 507 f;
#X obj 591 509 + 1;
#X msg 582 480 0;
#X msg 481 291 dump;
#X text 620 55 for each sequencer \, write:;
#X msg 108 291 dump;
#X obj 260 426 t l b;
#X obj 450 426 t l b;
#X obj 650 426 t l b;
#X obj 60 26 f \$1;
#X obj 108 392 tabletool sequence-\$1-params;
#X obj 299 392 tabletool sequence-table-\$1;
#X obj 350 552 text set saveSeqData-\$1;
#X obj 481 392 tabletool sequence-\$1-durations;
#X obj 60 58 t b b b b b, f 63;
#X obj 774 352 text define saveSeqData-\$1;
#X obj 774 326 r toSaveSeq-\$1;
#X obj 33 174 s toSaveSeq-\$1;
#X obj 496 149 s toSaveSeq-\$1;
#X obj 33 124 savepanel;
#X msg 33 147 write -c \$1;
#X connect 0 0 20 0;
#X connect 9 0 29 0;
#X connect 10 0 22 0;
#X connect 11 0 12 0;
#X connect 11 0 23 1;
#X connect 12 0 11 1;
#X connect 13 0 11 1;
#X connect 14 0 24 0;
#X connect 16 0 21 0;
#X connect 17 0 23 0;
#X connect 17 1 11 0;
#X connect 18 0 23 0;
#X connect 18 1 11 0;
#X connect 19 0 23 0;
#X connect 19 1 11 0;
#X connect 20 0 25 0;
#X connect 21 1 17 0;
#X connect 22 1 18 0;
#X connect 24 1 19 0;
#X connect 25 0 30 0;
#X connect 25 1 16 0;
#X connect 25 2 10 0;
#X connect 25 3 14 0;
#X connect 25 4 9 0;
#X connect 25 4 13 0;
#X connect 27 0 26 0;
#X connect 30 0 31 0;
#X connect 31 0 28 0;
#X restore 497 219 pd save-params;
#X obj 170 90 bng 15 250 50 0 empty empty empty 17 7 0 10 -261234 -1
-1;
#X obj 190 90 bng 15 250 50 0 empty empty empty 17 7 0 10 -204786 -1
-1;
#N canvas 751 323 1018 649 load-params 0;
#X obj 60 27 inlet;
#X text 631 93 sequence-table-\$1;
#X text 631 113 sequence-\$1-durations;
#X text 631 153 sequence-\$1-time;
#X text 632 173 sequence-\$1-mode;
#X text 632 193 sequence-\$1-random-walk-mag;
#X text 632 133 seq-\$1-gain;
#X text 632 223 Write one file per sequencer;
#X text 632 243 Should have global save/load as well as per-sequencer
save/load;
#X msg 469 127 clear;
#X text 631 73 for each sequencer \, write:;
#X obj 60 83 openpanel;
#X obj 469 157 s toSaveSeq-\$1;
#X obj 294 300 text get saveSeqData-\$1;
#X obj 294 242 f;
#X obj 322 244 + 1;
#X msg 313 215 0;
#X obj 294 263 t f f;
#X obj 294 321 list prepend;
#X obj 294 342 route 0 1 2;
#X obj 140 547 list prepend 0;
#X obj 140 568 s sequence-\$1-durations;
#X obj 140 434 t l l;
#X obj 177 466 list length;
#X obj 177 487 pack f \$1;
#X msg 177 508 \; sequence-\$2-durations resize \$1 \;;
#X obj 420 557 list prepend 0;
#X obj 420 434 t l l;
#X obj 457 466 list length;
#X obj 457 487 pack f \$1;
#X obj 420 578 s sequence-table-\$1;
#X obj 573 435 list prepend 0;
#X obj 573 456 s sequence-\$1-params;
#N canvas 173 61 834 501 unload-table-to-GUI-controls 0;
#X obj 60 52 inlet;
#X msg 60 79 4;
#X obj 60 100 t f b;
#X obj 60 121 until;
#X obj 60 169 f;
#X obj 88 171 + 1;
#X msg 79 142 0;
#X obj 60 216 tabread sequence-\$1-params;
#X obj 60 190 t f f;
#X obj 60 237 list prepend;
#X obj 205 394 s sequence-\$1-time-set;
#X obj 390 394 s sequence-\$1-mode-set;
#X obj 572 394 s sequence-\$1-random-walk-mag-set;
#X obj 60 394 s seq-\$1-gain-set;
#X obj 60 258 route 0 1 2 3;
#X connect 0 0 1 0;
#X connect 1 0 2 0;
#X connect 2 0 3 0;
#X connect 2 1 6 0;
#X connect 3 0 4 0;
#X connect 4 0 5 0;
#X connect 4 0 8 0;
#X connect 5 0 4 1;
#X connect 6 0 4 1;
#X connect 7 0 9 0;
#X connect 8 0 7 0;
#X connect 8 1 9 1;
#X connect 9 0 14 0;
#X connect 14 0 13 0;
#X connect 14 1 10 0;
#X connect 14 2 11 0;
#X connect 14 3 12 0;
#X restore 60 240 pd unload-table-to-GUI-controls;
#X msg 60 106 read -c \$1;
#X obj 60 169 t b b b b;
#X obj 60 127 t b a;
#X obj 60 58 t b b b, f 63;
#X obj 113 132 s toSaveSeq-\$1;
#X msg 457 508 \; sequence-table-\$2 resize \$1 \; sequence-\$2-length
\$1;
#X connect 0 0 37 0;
#X connect 9 0 12 0;
#X connect 11 0 34 0;
#X connect 13 0 18 0;
#X connect 14 0 15 0;
#X connect 14 0 17 0;
#X connect 15 0 14 1;
#X connect 16 0 14 1;
#X connect 17 0 13 0;
#X connect 17 1 18 1;
#X connect 18 0 19 0;
#X connect 19 0 22 0;
#X connect 19 1 27 0;
#X connect 19 2 31 0;
#X connect 20 0 21 0;
#X connect 22 0 20 0;
#X connect 22 1 23 0;
#X connect 23 0 24 0;
#X connect 24 0 25 0;
#X connect 26 0 30 0;
#X connect 27 0 26 0;
#X connect 27 1 28 0;
#X connect 28 0 29 0;
#X connect 29 0 39 0;
#X connect 31 0 32 0;
#X connect 34 0 36 0;
#X connect 35 0 33 0;
#X connect 35 1 14 0;
#X connect 35 2 14 0;
#X connect 35 3 14 0;
#X connect 36 0 35 0;
#X connect 36 1 38 0;
#X connect 37 0 11 0;
#X connect 37 1 16 0;
#X connect 37 2 9 0;
#X restore 497 239 pd load-params;
#X connect 13 0 17 0;
#X connect 14 0 15 0;
#X connect 15 0 20 0;
#X connect 16 0 15 1;
#X connect 17 0 18 0;
#X connect 18 0 14 0;
#X connect 19 0 17 1;
#X connect 20 0 21 0;
#X connect 22 0 23 0;
#X connect 23 0 24 0;
#X connect 24 0 25 0;
#X connect 25 0 20 1;
#X connect 27 0 28 0;
#X connect 31 0 30 0;
#X connect 32 0 33 0;
#X coords 0 -1 1 1 250 170 2 10 10;
