#N canvas 139 88 834 623 10;
#X obj 137 44 r sequence-\$1-tick;
#X obj 203 459 tabread sequence-table-\$1;
#X obj 266 527 s add-to-active;
#X obj 203 480 moses 0;
#X obj 242 551 s seq-\$1-trig-sound;
#X obj 237 65 r sequence-\$1-mode;
#X obj 667 232 r sequence-\$1-length;
#X obj 617 232 random;
#X obj 137 65 list prepend;
#N canvas 507 350 691 471 random-walk 0;
#X obj 128 69 inlet;
#X obj 362 294 outlet;
#X obj 178 191 f;
#X obj 288 161 moses 0;
#X obj 288 185 * -1;
#X obj 462 134 * -1;
#X obj 160 306 random 2;
#X obj 160 342 sel 0 1;
#X msg 160 371 -1;
#X msg 194 371 1;
#X obj 238 432 +;
#X obj 362 236 f;
#X obj 398 116 - 1;
#X obj 479 160 * 2;
#X obj 362 161 moses;
#X obj 462 189 +;
#X obj 398 87 r sequence-\$1-length;
#X obj 221 66 r sequence-reset;
#X obj 221 127 random;
#X obj 250 375 + 1;
#X obj 178 212 t b f b;
#X obj 205 405 *;
#X obj 250 353 random 1;
#X obj 295 328 r sequence-\$1-random-walk-mag;
#X connect 0 0 2 0;
#X connect 2 0 20 0;
#X connect 3 0 4 0;
#X connect 3 1 14 0;
#X connect 4 0 11 0;
#X connect 5 0 15 0;
#X connect 6 0 7 0;
#X connect 7 0 8 0;
#X connect 7 1 9 0;
#X connect 8 0 21 0;
#X connect 9 0 21 0;
#X connect 10 0 3 0;
#X connect 11 0 2 1;
#X connect 11 0 1 0;
#X connect 12 0 13 0;
#X connect 12 0 14 1;
#X connect 13 0 15 1;
#X connect 14 0 11 0;
#X connect 14 1 5 0;
#X connect 15 0 11 0;
#X connect 16 0 12 0;
#X connect 16 0 18 1;
#X connect 17 0 18 0;
#X connect 18 0 2 1;
#X connect 19 0 21 1;
#X connect 20 0 6 0;
#X connect 20 1 10 1;
#X connect 20 2 22 0;
#X connect 21 0 10 0;
#X connect 22 0 19 0;
#X connect 23 0 22 1;
#X restore 497 232 pd random-walk;
#X obj 36 413 s seq-\$1-last-idx;
#N canvas 182 73 528 454 rebound 0;
#X obj 133 40 inlet;
#X obj 229 367 outlet;
#X obj 133 164 f;
#X obj 229 331 f;
#X obj 287 118 - 1;
#X obj 287 94 r sequence-\$1-length;
#X obj 164 91 r sequence-reset;
#X msg 164 122 0;
#X msg 158 288 1;
#X msg 268 288 -1;
#X obj 165 165 +;
#X obj 268 268 t b f;
#X obj 158 268 t b f;
#X obj 229 247 moses;
#X obj 158 247 moses 1;
#X obj 133 182 t f f;
#X connect 0 0 2 0;
#X connect 2 0 15 0;
#X connect 3 0 1 0;
#X connect 4 0 13 1;
#X connect 5 0 4 0;
#X connect 6 0 7 0;
#X connect 7 0 2 1;
#X connect 8 0 10 1;
#X connect 9 0 10 1;
#X connect 10 0 2 1;
#X connect 11 0 9 0;
#X connect 11 1 3 0;
#X connect 12 0 8 0;
#X connect 12 1 3 0;
#X connect 13 0 3 0;
#X connect 13 1 11 0;
#X connect 14 0 12 0;
#X connect 14 1 13 0;
#X connect 15 0 10 0;
#X connect 15 1 14 0;
#X restore 367 232 pd rebound;
#N canvas 0 23 450 300 forwards 0;
#X obj 133 40 inlet;
#X obj 133 195 outlet;
#X obj 133 134 f;
#X obj 175 125 + 1;
#X obj 175 146 %;
#X obj 205 146 r sequence-\$1-length;
#X obj 156 69 r sequence-reset;
#X msg 156 90 0;
#X connect 0 0 2 0;
#X connect 2 0 3 0;
#X connect 2 0 1 0;
#X connect 3 0 4 0;
#X connect 4 0 2 1;
#X connect 5 0 4 1;
#X connect 6 0 7 0;
#X connect 7 0 2 1;
#X restore 137 232 pd forwards;
#N canvas 386 106 364 334 backwards 0;
#X obj 98 36 inlet;
#X obj 98 241 outlet;
#X obj 98 130 f;
#X obj 140 121 + 1;
#X obj 140 142 %;
#X obj 170 142 r sequence-\$1-length;
#X obj 121 65 r sequence-reset;
#X msg 121 86 0;
#X obj 150 177 - 1;
#X obj 98 195 -;
#X obj 98 174 swap;
#X connect 0 0 2 0;
#X connect 2 0 3 0;
#X connect 2 0 10 0;
#X connect 3 0 4 0;
#X connect 4 0 2 1;
#X connect 5 0 4 1;
#X connect 5 0 8 0;
#X connect 6 0 7 0;
#X connect 7 0 2 1;
#X connect 8 0 10 1;
#X connect 9 0 1 0;
#X connect 10 0 9 0;
#X connect 10 1 9 1;
#X restore 247 232 pd backwards;
#X obj 137 86 select 0 1 2 3 4;
#X connect 0 0 8 0;
#X connect 1 0 3 0;
#X connect 3 1 2 0;
#X connect 3 1 4 0;
#X connect 5 0 8 1;
#X connect 6 0 7 1;
#X connect 7 0 1 0;
#X connect 7 0 10 0;
#X connect 8 0 14 0;
#X connect 9 0 1 0;
#X connect 9 0 10 0;
#X connect 11 0 1 0;
#X connect 11 0 10 0;
#X connect 12 0 1 0;
#X connect 12 0 10 0;
#X connect 13 0 10 0;
#X connect 13 0 1 0;
#X connect 14 0 12 0;
#X connect 14 1 13 0;
#X connect 14 2 11 0;
#X connect 14 3 9 0;
#X connect 14 4 7 0;
