#N canvas 699 432 1077 592 10;
#X obj 72 420 list prepend 0;
#X obj 186 339 list length;
#X obj 72 289 t l l;
#X obj 179 178 table sequence-table-\$1;
#X obj 72 441 s sequence-table-\$1;
#X obj 72 209 inlet;
#X obj 126 64 f \$1;
#X msg 126 85 \; sequence-table-\$1 const -1 \;;
#X obj 86 7 loadbang;
#X obj 126 43 r seq-\$1-clear;
#X obj 474 112 r sequence-\$1-delete;
#X obj 669 375 tabletool sequence-table-\$1;
#X msg 669 352 remove \$1;
#X obj 495 391 r sequence-\$1-length;
#X obj 474 419 f;
#X obj 474 440 - 1;
#X obj 534 491 s sequence-\$1-length;
#X obj 221 235 pack f \$1;
#X msg 221 257 \; sequence-table-\$2 resize \$1 \;;
#X obj 221 210 r sequence-\$1-length;
#X obj 186 364 s sequence-\$1-length;
#X obj 474 244 t b f;
#X obj 880 219 r sequence-\$1-length;
#X obj 859 247 f;
#X obj 859 289 s sequence-\$1-length;
#X obj 859 268 + 1;
#X obj 752 176 t f b;
#X obj 474 160 tabletool in-mouse-radius;
#X msg 474 133 drip;
#X obj 474 181 select -1;
#X obj 510 311 tabletool sequence-table-\$1;
#X msg 510 285 equals \$1;
#X obj 474 461 select 0;
#X msg 474 502 0 -1;
#X obj 474 523 s sequence-table-\$1;
#X obj 701 72 r sequence-\$1-append;
#X obj 701 123 tabletool in-mouse-radius;
#X msg 701 96 drip;
#X obj 701 144 select -1;
#X obj 752 247 pack f \$1 f;
#X msg 752 318 \; sequence-table-\$2 \$3 \$1;
#X connect 0 0 4 0;
#X connect 1 0 20 0;
#X connect 2 0 0 0;
#X connect 2 1 1 0;
#X connect 5 0 2 0;
#X connect 6 0 7 0;
#X connect 8 0 6 0;
#X connect 9 0 6 0;
#X connect 10 0 28 0;
#X connect 12 0 11 0;
#X connect 13 0 14 1;
#X connect 14 0 15 0;
#X connect 15 0 32 0;
#X connect 17 0 18 0;
#X connect 19 0 17 0;
#X connect 21 0 14 0;
#X connect 21 1 31 0;
#X connect 22 0 23 1;
#X connect 23 0 25 0;
#X connect 23 0 39 2;
#X connect 25 0 24 0;
#X connect 26 0 39 0;
#X connect 26 1 23 0;
#X connect 27 0 29 0;
#X connect 28 0 27 0;
#X connect 29 1 21 0;
#X connect 30 1 12 0;
#X connect 31 0 30 0;
#X connect 32 0 33 0;
#X connect 32 1 16 0;
#X connect 33 0 34 0;
#X connect 35 0 37 0;
#X connect 36 0 38 0;
#X connect 37 0 36 0;
#X connect 38 1 26 0;
#X connect 39 0 40 0;
