#N canvas 0 22 728 608 12;
#X obj 264 219 array size birdarray;
#X obj 246 240 *;
#X msg 246 358 0 \, 1 \$1;
#X obj 302 267 unpack;
#X obj 302 291 /;
#X obj 334 291 * 0.001;
#X obj 246 382 line~;
#X obj 246 406 *~ 2048;
#X obj 246 453 tabread4~ birdarray;
#X obj 246 310 f;
#X obj 246 284 t b f;
#X obj 390 425 +~ 1;
#X obj 246 486 *~;
#X obj 363 180 t b a a;
#X obj 409 302 unpack;
#X obj 246 28 inlet;
#X obj 246 334 t f f;
#X obj 514 353 del;
#X obj 514 534 outlet;
#X obj 246 144 list split 1;
#X obj 246 172 t f f;
#X msg 514 485 0;
#X obj 246 538 outlet~;
#X obj 363 116 r params;
#X text 366 379 (internal env size);
#X text 377 146 bird_window_analysis bird_file_samplerate;
#X text 129 60 position in fraction of array size, f 11;
#X text 45 356 grain duration in msec -->;
#X text 43 406 grain length in samples -->;
#X text 40 423 (eq to bird_window_analysis);
#X text 426 218 <-- size of bird array;
#X text 60 240 position in birdarray -->;
#X obj 390 401 *~ 509;
#X obj 390 467 tabread4~ \$2;
#X connect 0 0 1 1;
#X connect 1 0 10 0;
#X connect 2 0 6 0;
#X connect 3 0 4 0;
#X connect 3 1 5 0;
#X connect 4 0 9 1;
#X connect 5 0 4 1;
#X connect 6 0 7 0;
#X connect 6 0 32 0;
#X connect 7 0 8 0;
#X connect 8 0 12 0;
#X connect 9 0 16 0;
#X connect 10 0 9 0;
#X connect 10 1 8 1;
#X connect 11 0 33 0;
#X connect 12 0 22 0;
#X connect 13 0 0 0;
#X connect 13 1 3 0;
#X connect 13 2 14 0;
#X connect 14 0 7 1;
#X connect 15 0 19 0;
#X connect 16 0 2 0;
#X connect 16 1 17 0;
#X connect 17 0 21 0;
#X connect 19 0 20 0;
#X connect 20 0 1 0;
#X connect 21 0 18 0;
#X connect 23 0 13 0;
#X connect 32 0 11 0;
#X connect 33 0 12 1;
