#N canvas 675 127 962 681 12;
#X declare -path ./lib;
#N canvas 0 110 565 454 hann-window 0;
#N canvas 0 0 450 300 (subpatch) 0;
#X array \$0-hann 2048 float 0;
#X coords 0 1 2047 0 300 100 1;
#X restore 82 311 graph;
#X obj 378 165 osc~;
#X obj 378 190 *~ -0.5;
#X obj 378 214 +~ 0.5;
#X obj 331 247 tabwrite~ \$0-hann;
#X obj 37 88 r window-size;
#X obj 38 173 /;
#X obj 127 142 samplerate~;
#X obj 38 251 s window-sec;
#X obj 177 204 swap;
#X obj 177 228 /;
#X obj 177 252 s window-hz;
#X obj 49 201 * 1000;
#X obj 49 228 s window-msec;
#X obj 38 115 t f b f;
#X msg 173 92 resize \$1;
#X obj 173 116 s \$0-hann;
#X obj 330 105 r window-hz;
#X msg 382 130 0;
#X obj 330 131 t f b;
#X text 15 8 calculate Hann window table (variable window size) and
constants window-hz (fundamental frequency of analysis) \, window-sec
and window-msec (analysis window size in seconds and msec).;
#X connect 1 0 2 0;
#X connect 2 0 3 0;
#X connect 3 0 4 0;
#X connect 5 0 14 0;
#X connect 6 0 8 0;
#X connect 6 0 12 0;
#X connect 7 0 6 1;
#X connect 7 0 9 1;
#X connect 9 0 10 0;
#X connect 9 1 10 1;
#X connect 10 0 11 0;
#X connect 12 0 13 0;
#X connect 14 0 6 0;
#X connect 14 0 9 0;
#X connect 14 1 7 0;
#X connect 14 2 15 0;
#X connect 15 0 16 0;
#X connect 17 0 19 0;
#X connect 18 0 1 1;
#X connect 19 0 1 0;
#X connect 19 1 4 0;
#X connect 19 1 18 0;
#X restore 689 159 pd hann-window;
#X text 447 318 detune;
#X text 560 315 window size \,;
#X obj 698 192 array define \$0-sample;
#X obj 49 609 dac~;
#X floatatom 260 144 5 0 0 0 - - -;
#X floatatom 259 82 5 0 0 0 - - -;
#X obj 259 107 / 1000;
#X obj 689 20 loadbang;
#N canvas 0 50 450 300 test_bang 0;
#X obj 46 13 r test_bang;
#X msg 72 79 1 \, 0 1000;
#X obj 72 105 line~;
#X obj 72 131 lop~ 100;
#X obj 72 157 *~;
#X obj 202 133 osc~ 440;
#X obj 186 76 + 60;
#X obj 185 50 random 20;
#X obj 186 102 mtof;
#X obj 72 183 *~ 0.5;
#X obj 129 248 dac~;
#X obj 292 135 osc~ 440;
#X obj 276 78 + 60;
#X obj 275 52 random 20;
#X obj 276 104 mtof;
#X obj 185 168 *~;
#X obj 185 194 *~ 0.5;
#X obj 72 50 t b b b;
#X obj 181 12 bng 15 250 50 0 empty empty empty 17 7 0 10 -262144 -1
-1;
#X connect 0 0 17 0;
#X connect 1 0 2 0;
#X connect 2 0 3 0;
#X connect 3 0 4 0;
#X connect 3 0 15 0;
#X connect 4 0 9 0;
#X connect 5 0 4 1;
#X connect 6 0 8 0;
#X connect 7 0 6 0;
#X connect 8 0 5 0;
#X connect 9 0 10 0;
#X connect 11 0 15 1;
#X connect 12 0 14 0;
#X connect 13 0 12 0;
#X connect 14 0 11 0;
#X connect 15 0 16 0;
#X connect 16 0 10 1;
#X connect 17 0 1 0;
#X connect 17 1 7 0;
#X connect 17 2 13 0;
#X connect 18 0 17 0;
#X restore 797 10 pd test_bang;
#X obj 47 478 catch~ out;
#X obj 706 253 r read-sample;
#X obj 706 304 unpack s f;
#X obj 706 414 soundfiler;
#X obj 706 330 t s b;
#X obj 706 365 pack s s;
#X msg 706 390 read -resize \$1 \$2;
#X obj 761 276 44100;
#X obj 706 277 t a b;
#X obj 803 304 s \$0-insamprate;
#X obj 706 477 /;
#X obj 706 501 * 1000;
#X obj 706 524 s \$0-samp-msec;
#X obj 744 477 r \$0-insamprate;
#X obj 716 438 s \$0-samplength;
#X obj 762 329 symbol \$0-sample;
#X floatatom 454 353 5 0 0 0 - transpo-set -;
#X floatatom 127 421 3 0 0 0 - speed-set -;
#X obj 454 376 s transpo;
#X text 124 402 hundredths;
#X text 453 332 in cents;
#X text 349 397 normal;
#X obj 453 425 tgl 15 0 empty empty empty 0 -6 0 8 -262144 -1 -1 0
1;
#X obj 127 445 s speed;
#X obj 222 424 bng 15 250 50 0 empty empty empty 0 -6 0 8 -262144 -1
-1;
#X obj 222 446 s rewind;
#X msg 305 374 200;
#X msg 305 396 100;
#X msg 305 418 20;
#X text 346 373 contract;
#X text 350 418 expand;
#X obj 453 445 s lock;
#X text 125 386 motion in;
#X msg 567 345 512;
#X msg 567 367 1024;
#X msg 567 389 2048;
#X msg 567 411 4096;
#X obj 567 433 s window-size;
#X text 567 327 samples;
#X text 608 344 <- set;
#X obj 305 445 s auto;
#X obj 511 354 bng 15 250 50 0 no-detune empty empty 0 -6 0 8 -262144
-1 -1;
#X obj 60 252 clone _pvoc 10 \$0;
#X obj 259 183 s bird_pos-0;
#X obj 47 504 *~ 0.5;
#X msg 381 9 10;
#X obj 381 35 until;
#X obj 381 61 f;
#X obj 381 87 + 1;
#X obj 381 113 mod 10;
#X obj 381 139 t f f;
#X obj 381 165 t b f;
#X obj 381 243 pack;
#X msg 381 269 \; bird_pos-\$2 \$1;
#X floatatom 483 29 5 0 0 0 - - -;
#X obj 483 54 / 10000;
#X obj 483 80 t b f;
#X obj 381 191 f;
#X obj 50 26 declare -path ./lib;
#X msg 689 46 \; pd dsp 1 \; read-sample ../rec/bird10.wav \; window-size
2048 \; transpo 0 \; rewind bang;
#X connect 5 0 53 0;
#X connect 6 0 7 0;
#X connect 7 0 5 0;
#X connect 8 0 69 0;
#X connect 10 0 54 0;
#X connect 11 0 18 0;
#X connect 12 0 14 0;
#X connect 12 1 19 0;
#X connect 13 0 20 0;
#X connect 13 0 24 0;
#X connect 14 0 15 0;
#X connect 14 1 25 0;
#X connect 15 0 16 0;
#X connect 16 0 13 0;
#X connect 17 0 19 0;
#X connect 18 0 12 0;
#X connect 18 1 17 0;
#X connect 20 0 21 0;
#X connect 21 0 22 0;
#X connect 23 0 20 1;
#X connect 25 0 15 1;
#X connect 26 0 28 0;
#X connect 27 0 33 0;
#X connect 32 0 41 0;
#X connect 34 0 35 0;
#X connect 36 0 50 0;
#X connect 37 0 50 0;
#X connect 38 0 50 0;
#X connect 43 0 47 0;
#X connect 44 0 47 0;
#X connect 45 0 47 0;
#X connect 46 0 47 0;
#X connect 54 0 4 0;
#X connect 54 0 4 1;
#X connect 55 0 56 0;
#X connect 56 0 57 0;
#X connect 57 0 58 0;
#X connect 58 0 59 0;
#X connect 59 0 60 0;
#X connect 60 0 61 0;
#X connect 60 1 57 1;
#X connect 61 0 67 0;
#X connect 61 1 62 1;
#X connect 62 0 63 0;
#X connect 64 0 65 0;
#X connect 65 0 66 0;
#X connect 66 0 55 0;
#X connect 66 1 67 1;
#X connect 67 0 62 0;
