#N canvas 0 50 990 715 12;
#X floatatom 204 393 7 0 0 0 - #0-location-set -;
#N canvas 114 80 821 836 fft-analysis 1;
#X obj 51 477 *~;
#X obj 18 477 *~;
#X obj 18 499 -~;
#X obj 167 475 *~;
#X obj 136 475 *~;
#X obj 136 497 +~;
#X obj 109 193 *~;
#X obj 78 193 *~;
#X obj 50 193 *~;
#X obj 19 193 *~;
#X obj 19 218 +~;
#X obj 127 379 *~;
#X obj 20 622 *~;
#X obj 238 430 rfft~;
#X obj 108 161 rfft~;
#X obj 19 564 rifft~;
#X obj 21 646 outlet~;
#X obj 97 379 *~;
#X obj 97 401 +~;
#X obj 124 218 -~;
#X obj 18 431 *~;
#X obj 51 432 *~;
#X obj 127 622 r window-size;
#X obj 426 595 r window-size;
#X obj 426 644 block~;
#X obj 19 349 +~ 1e-15;
#X obj 19 598 *~;
#X obj 127 643 expr 2/(3*$f1);
#X msg 426 619 set \$1 4;
#X obj 97 425 q8_rsqrt~;
#N canvas 594 197 1006 799 read-windows 0;
#X obj 18 693 *~;
#X obj 340 448 r window-size;
#X obj 166 303 f;
#X obj 102 91 r window-size;
#X obj 102 139 /;
#X obj 195 695 *~;
#X obj 166 252 bang~;
#X obj 17 551 line~;
#X obj 102 164 * 1000;
#X obj 288 222 r speed;
#X obj 187 276 r \$0-location;
#X obj 208 305 +;
#X obj 288 275 *;
#X obj 188 371 / 1000;
#X obj 166 394 *;
#X text 198 394 reading \$0-location (samples);
#X obj 51 597 / 4;
#X obj 288 245 * 0.01;
#X floatatom 340 498 7 0 0 0 - - -;
#X obj 340 474 *;
#X obj 499 365 r transpo;
#X obj 499 387 * 0.01;
#X obj 501 408 + 69;
#X obj 502 429 mtof;
#X obj 502 451 / 440;
#X obj 375 474 t b f;
#X obj 19 719 outlet~;
#X obj 195 720 outlet~;
#X obj 218 664 tabreceive~ \$2-hann;
#X obj 803 386 r \$0-location;
#X msg 803 409 0;
#X obj 803 432 s speed;
#X obj 768 508 r speed;
#X msg 768 532 set \$1;
#X obj 768 557 s speed-set;
#X text 411 498 stretched window size (samples);
#X obj 877 507 r transpo;
#X msg 877 533 set \$1;
#X obj 877 558 s transpo-set;
#X obj 808 94 r \$0-location;
#X msg 826 278 set \$1;
#X obj 808 140 t b f;
#X obj 826 257 f;
#X obj 754 171 int;
#X obj 754 203 sel 0;
#X msg 813 174 1;
#X msg 813 197 0;
#X obj 754 228 del 300;
#X obj 826 302 s \$0-location-set;
#X obj 17 637 tabread4~ \$2-sample;
#X obj 194 637 tabread4~ \$2-sample;
#X obj 429 546 r rewind;
#X floatatom 111 187 5 0 0 0 - - -;
#X obj 102 115 t f b;
#X obj 142 139 samplerate~;
#X obj 102 208 / 4;
#X obj 243 309 s see-loc;
#X obj 817 116 r see-loc;
#X obj 203 420 / 2;
#X obj 166 420 -;
#X text 239 417 back up 1/2 window;
#X obj 16 597 -~;
#X text 43 6 Read two windows out of the recorded sample \, one 1/4
ahead of the other. The mid point of the front window is specified
by "\$0-location". If "speed" is nonzero \, "\$0-location" automatically
precesses.;
#X obj 429 680 * -0.5;
#X text 81 601 "back" window 1/4 cycle behind "front" one;
#X text 137 205 computation period (msec) for overlap of 4;
#X text 164 186 msec in a window;
#X obj 429 626 /;
#X obj 429 651 * 1000;
#X obj 429 602 t f b;
#X obj 469 626 samplerate~;
#X obj 429 579 f;
#X msg 845 711 \; rewind bang \; speed \$1;
#X obj 845 684 r auto;
#X obj 730 685 r no-detune;
#X text 326 275 loop to precess the \$0-location according;
#X text 325 291 to the "speed" parameter.;
#X text 611 31 if \$0-location changes \, update number box;
#X text 610 50 in main window via "\$0-location-set" \, but;
#X text 613 69 taking care to limit frequency of updates.;
#X text 756 462 reflect control changes;
#X text 756 479 in main window.;
#X text 754 344 setting \$0-location by hand;
#X text 752 362 sets speed to zero.;
#X text 760 653 misc controls;
#X text 496 527 "rewind" control takes us;
#X text 499 545 to a \$0-location depending on;
#X text 400 524 stretched window size.;
#X obj 16 469 f;
#X obj 17 496 pack;
#X obj 15 440 b;
#X msg 17 523 0 \, \$1 \$2;
#X msg 730 707 \; transpo 0;
#X obj 188 347 r \$2-insamprate;
#X obj 428 737 s \$0-location;
#X connect 0 0 26 0;
#X connect 1 0 19 0;
#X connect 2 0 11 0;
#X connect 2 0 14 0;
#X connect 3 0 53 0;
#X connect 4 0 8 0;
#X connect 5 0 27 0;
#X connect 6 0 2 0;
#X connect 7 0 61 0;
#X connect 7 0 50 0;
#X connect 8 0 52 0;
#X connect 8 0 55 0;
#X connect 9 0 17 0;
#X connect 10 0 2 1;
#X connect 11 0 2 1;
#X connect 11 0 56 0;
#X connect 12 0 11 1;
#X connect 13 0 14 1;
#X connect 14 0 59 0;
#X connect 16 0 61 1;
#X connect 17 0 12 0;
#X connect 18 0 16 0;
#X connect 18 0 58 0;
#X connect 18 0 71 1;
#X connect 18 0 88 1;
#X connect 19 0 18 0;
#X connect 20 0 21 0;
#X connect 21 0 22 0;
#X connect 22 0 23 0;
#X connect 23 0 24 0;
#X connect 24 0 25 0;
#X connect 25 0 19 0;
#X connect 25 1 19 1;
#X connect 28 0 5 1;
#X connect 28 0 0 1;
#X connect 29 0 30 0;
#X connect 30 0 31 0;
#X connect 32 0 33 0;
#X connect 33 0 34 0;
#X connect 36 0 37 0;
#X connect 37 0 38 0;
#X connect 39 0 41 0;
#X connect 40 0 48 0;
#X connect 41 0 43 0;
#X connect 41 1 42 1;
#X connect 42 0 40 0;
#X connect 43 0 44 0;
#X connect 44 0 45 0;
#X connect 44 0 47 0;
#X connect 45 0 43 1;
#X connect 46 0 43 1;
#X connect 47 0 46 0;
#X connect 47 0 42 0;
#X connect 49 0 0 0;
#X connect 50 0 5 0;
#X connect 51 0 71 0;
#X connect 53 0 4 0;
#X connect 53 1 54 0;
#X connect 54 0 4 1;
#X connect 55 0 12 1;
#X connect 55 0 89 1;
#X connect 57 0 41 0;
#X connect 58 0 59 1;
#X connect 59 0 90 0;
#X connect 59 0 49 1;
#X connect 59 0 50 1;
#X connect 61 0 49 0;
#X connect 67 0 68 0;
#X connect 68 0 63 0;
#X connect 69 0 67 0;
#X connect 69 1 70 0;
#X connect 70 0 67 1;
#X connect 71 0 69 0;
#X connect 73 0 72 0;
#X connect 74 0 92 0;
#X connect 88 0 89 0;
#X connect 89 0 91 0;
#X connect 90 0 88 0;
#X connect 91 0 7 0;
#X connect 93 0 13 0;
#X restore 109 133 pd read-windows;
#X obj 137 543 tabsend~ \$0-prev-imag;
#X obj 136 567 tabsend~ \$0-prev-real;
#X obj 20 8 tabreceive~ \$0-prev-real;
#X obj 73 29 tabreceive~ \$0-prev-imag;
#X text 272 5 recall previous output amplitude. Its phase will be added
to the phase difference we measure from two windows in the the recorded
sound.;
#X obj 121 69 *~;
#X obj 89 69 *~;
#X obj 89 91 +~;
#X obj 159 94 q8_rsqrt~;
#X obj 159 71 +~ 1e-20;
#X obj 73 119 *~;
#X obj 19 118 *~;
#X obj 181 290 r lock;
#X obj 29 245 lrshift~ 1;
#X obj 24 269 lrshift~ -1;
#X obj 141 245 lrshift~ 1;
#X obj 133 269 lrshift~ -1;
#X obj 35 300 *~;
#X obj 159 312 *~;
#X obj 19 325 +~;
#X obj 125 331 +~;
#X text 247 66 divide by the magnitude to make a unit-magnitude complex
amplitude (phase only). The 1e-20 is to prevent overflows. q8_rsqrt~
is reciprocal square root.;
#X text 247 165 Take FT of the window in back. Multiply its conjugate
by the normalized previous output. The result has the magnitude of
the input sound and phase (previous output phase) minus (back window
phase).;
#X text 249 370 Normalize again \, this time taking care to salt each
channel with 1e-15 so that we get a unit complex number even if everything
was zero heretofore.;
#X text 288 427 Now take the FT of the forward window and multiply
it by the unit complex number from above. The magnitude will be that
of the forward window and the phase will be the previous output phase
plus the phase difference between the two analysis windows -- except
that if "lock" is on \, they will be modified to agree progressively
better with the inter-channel phase relationships of the input.;
#X text 249 242 If "lock" is on \, encourage neighboring channels to
stay in phase by adding the two neighboring complex amplitudes. The
result will tend toward the channel with the strongest amplitude. If
the phase relationships between channels in the output and those in
the input are in parallel \, then neighboring channels of the quotient
will all have the same phase and this will not change any phases. (lrshift
shifts the signal to the left or right depending on its argument.)
;
#X text 387 560 'set' message to block;
#X text 390 577 allows variable size;
#X text 259 126 Read two windows \, one 1/4 length behind the other
\, of the input sound \, with Hann window function (see inside).;
#X obj 52 598 tabreceive~ \$2-hann;
#X connect 0 0 2 1;
#X connect 1 0 2 0;
#X connect 2 0 32 0;
#X connect 2 0 15 0;
#X connect 3 0 5 1;
#X connect 4 0 5 0;
#X connect 5 0 31 0;
#X connect 5 0 15 1;
#X connect 6 0 19 1;
#X connect 7 0 19 0;
#X connect 8 0 10 1;
#X connect 9 0 10 0;
#X connect 10 0 45 0;
#X connect 10 0 44 0;
#X connect 10 0 50 0;
#X connect 11 0 18 1;
#X connect 12 0 16 0;
#X connect 13 0 1 1;
#X connect 13 0 3 1;
#X connect 13 1 0 1;
#X connect 13 1 4 1;
#X connect 14 0 9 1;
#X connect 14 0 7 1;
#X connect 14 1 6 1;
#X connect 14 1 8 1;
#X connect 15 0 26 0;
#X connect 17 0 18 0;
#X connect 18 0 29 0;
#X connect 19 0 46 0;
#X connect 19 0 47 0;
#X connect 19 0 51 0;
#X connect 20 0 1 0;
#X connect 20 0 4 0;
#X connect 21 0 0 0;
#X connect 21 0 3 0;
#X connect 22 0 27 0;
#X connect 23 0 28 0;
#X connect 25 0 17 1;
#X connect 25 0 17 0;
#X connect 25 0 20 0;
#X connect 26 0 12 0;
#X connect 27 0 12 1;
#X connect 28 0 24 0;
#X connect 29 0 20 1;
#X connect 29 0 21 1;
#X connect 30 0 14 0;
#X connect 30 1 13 0;
#X connect 33 0 37 1;
#X connect 33 0 37 0;
#X connect 33 0 42 0;
#X connect 34 0 36 1;
#X connect 34 0 36 0;
#X connect 34 0 41 0;
#X connect 36 0 38 1;
#X connect 37 0 38 0;
#X connect 38 0 40 0;
#X connect 39 0 41 1;
#X connect 39 0 42 1;
#X connect 40 0 39 0;
#X connect 41 0 8 0;
#X connect 41 0 7 0;
#X connect 42 0 9 0;
#X connect 42 0 6 0;
#X connect 43 0 48 1;
#X connect 43 0 49 1;
#X connect 44 0 48 0;
#X connect 45 0 48 0;
#X connect 46 0 49 0;
#X connect 47 0 49 0;
#X connect 48 0 50 1;
#X connect 49 0 51 1;
#X connect 50 0 25 0;
#X connect 51 0 11 0;
#X connect 51 0 11 1;
#X connect 51 0 21 0;
#X connect 60 0 26 1;
#X restore 205 466 pd fft-analysis;
#X obj 204 415 s \$0-location;
#X text 204 338 \$0-location;
#X text 201 354 (stops;
#X text 206 369 motion);
#X text 249 314 ------- \$0-location controls -------;
#X obj 254 229 s \$0-location;
#X obj 255 189 *;
#X obj 207 556 throw~ out;
#X obj 291 136 r \$2-samplength;
#X obj 558 124 array define \$0-prev-real;
#X obj 557 152 array define \$0-prev-imag;
#X obj 253 47 r bird_pos-\$1;
#X obj 183 63 inlet;
#X connect 0 0 2 0;
#X connect 1 0 9 0;
#X connect 8 0 7 0;
#X connect 10 0 8 1;
#X connect 13 0 8 0;
#X connect 14 0 8 0;
