#N canvas 703 105 450 300 12;
#X obj 72 22 r test_bang;
#X msg 72 79 1 \, 0 1000;
#X obj 72 105 line~;
#X obj 72 131 lop~ 100;
#X obj 72 157 *~;
#X obj 202 133 osc~ 440;
#X obj 186 76 + 60;
#X obj 185 50 random 20;
#X obj 186 102 mtof;
#X obj 72 183 *~ 0.5;
#X obj 72 240 dac~;
#X obj 292 135 osc~ 440;
#X obj 276 78 + 60;
#X obj 275 52 random 20;
#X obj 276 104 mtof;
#X obj 185 168 *~;
#X obj 185 194 *~ 0.5;
#X obj 72 50 t b b b;
#X msg 281 200 \; pd dsp 1;
#X obj 181 12 bng 15 250 50 0 empty empty empty 17 7 0 10 -262144 -1
-1;
#X obj 290 166 loadbang;
#X connect 0 0 17 0;
#X connect 1 0 2 0;
#X connect 2 0 3 0;
#X connect 3 0 4 0;
#X connect 3 0 15 0;
#X connect 4 0 9 0;
#X connect 5 0 4 1;
#X connect 6 0 8 0;
#X connect 7 0 6 0;
#X connect 8 0 5 0;
#X connect 9 0 10 0;
#X connect 11 0 15 1;
#X connect 12 0 14 0;
#X connect 13 0 12 0;
#X connect 14 0 11 0;
#X connect 15 0 16 0;
#X connect 16 0 10 1;
#X connect 17 0 1 0;
#X connect 17 1 7 0;
#X connect 17 2 13 0;
#X connect 19 0 17 0;
#X connect 20 0 18 0;
